<svg width="29" height="28" viewBox="0 0 29 28" fill="none" xmlns="http://www.w3.org/2000/svg">
<g clip-path="url(#clip0_5_1670)">
<path d="M11.875 5.4H12.025V5.25V3.5V3.35H11.875H7.5C6.53196 3.35 5.60357 3.73455 4.91906 4.41906C4.23455 5.10357 3.85 6.03196 3.85 7V21C3.85 21.968 4.23455 22.8964 4.91906 23.5809C5.60357 24.2654 6.53196 24.65 7.5 24.65H11.875H12.025V24.5V22.75V22.6H11.875H7.5C7.07565 22.6 6.66869 22.4314 6.36863 22.1314C6.06857 21.8313 5.9 21.4243 5.9 21V7C5.9 6.57565 6.06857 6.16869 6.36863 5.86863C6.66869 5.56857 7.07565 5.4 7.5 5.4H11.875ZM17.125 22.6H16.975V22.75V24.5V24.65H17.125H21.5C22.468 24.65 23.3964 24.2654 24.0809 23.5809C24.7654 22.8964 25.15 21.968 25.15 21V7C25.15 6.03196 24.7654 5.10357 24.0809 4.41906C23.3964 3.73455 22.468 3.35 21.5 3.35H17.125H16.975V3.5V5.25V5.4H17.125H21.5C21.9243 5.4 22.3313 5.56857 22.6314 5.86863C22.9314 6.16869 23.1 6.57565 23.1 7V21C23.1 21.4243 22.9314 21.8313 22.6314 22.1314C22.3313 22.4314 21.9243 22.6 21.5 22.6H17.125ZM13.7752 27.8498C13.9674 28.042 14.2282 28.15 14.5 28.15C14.7718 28.15 15.0326 28.042 15.2248 27.8498C15.417 27.6576 15.525 27.3968 15.525 27.125V0.875C15.525 0.603153 15.417 0.342441 15.2248 0.150216C15.0326 -0.0420094 14.7718 -0.15 14.5 -0.15C14.2282 -0.15 13.9674 -0.0420093 13.7752 0.150216C13.583 0.34244 13.475 0.603153 13.475 0.875V27.125C13.475 27.3968 13.583 27.6576 13.7752 27.8498Z" fill="white" stroke="white" stroke-width="0.3"/>
</g>
<defs>
<clipPath id="clip0_5_1670">
<rect width="28" height="28" fill="white" transform="translate(0.5)"/>
</clipPath>
</defs>
</svg>
