<svg width="32" height="32" viewBox="0 0 32 32" fill="none" xmlns="http://www.w3.org/2000/svg">
<path d="M13.337 16.041C13.337 14.567 14.5312 13.3717 16.0048 13.3717C17.4784 13.3717 18.6733 14.567 18.6733 16.041C18.6733 17.515 17.4784 18.7102 16.0048 18.7102C14.5312 18.7102 13.337 17.515 13.337 16.041ZM11.8944 16.041C11.8944 18.3118 13.7346 20.1525 16.0048 20.1525C18.275 20.1525 20.1152 18.3118 20.1152 16.041C20.1152 13.7702 18.275 11.9294 16.0048 11.9294C13.7346 11.9294 11.8944 13.7702 11.8944 16.041ZM19.3173 11.7664C19.3172 11.9564 19.3735 12.1422 19.479 12.3003C19.5845 12.4583 19.7344 12.5816 19.9099 12.6544C20.0854 12.7272 20.2786 12.7463 20.4649 12.7093C20.6513 12.6723 20.8225 12.5808 20.9569 12.4465C21.0912 12.3122 21.1828 12.141 21.2199 11.9546C21.2571 11.7682 21.2381 11.575 21.1655 11.3994C21.0929 11.2238 20.9698 11.0737 20.8119 10.9681C20.654 10.8624 20.4683 10.806 20.2783 10.8059H20.2779C20.0232 10.8061 19.779 10.9073 19.5989 11.0874C19.4188 11.2674 19.3175 11.5117 19.3173 11.7664ZM12.7709 22.5586C11.9904 22.523 11.5662 22.393 11.2843 22.2831C10.9106 22.1376 10.644 21.9643 10.3636 21.6842C10.0832 21.4041 9.90969 21.1377 9.76483 20.7638C9.65494 20.482 9.52495 20.0575 9.48947 19.2769C9.45066 18.4329 9.44291 18.1793 9.44291 16.041C9.44291 13.9028 9.4513 13.6499 9.48947 12.8052C9.52501 12.0246 9.65597 11.6009 9.76483 11.3183C9.91033 10.9444 10.0836 10.6777 10.3636 10.3973C10.6436 10.1168 10.91 9.94322 11.2843 9.79832C11.5661 9.6884 11.9904 9.55836 12.7709 9.52288C13.6146 9.48406 13.8681 9.47631 16.0048 9.47631C18.1415 9.47631 18.3952 9.4847 19.2397 9.52288C20.0201 9.55843 20.4436 9.68942 20.7262 9.79832C21.1 9.94322 21.3666 10.1172 21.647 10.3973C21.9273 10.6773 22.1002 10.9444 22.2457 11.3183C22.3556 11.6001 22.4856 12.0246 22.5211 12.8052C22.5599 13.6499 22.5677 13.9028 22.5677 16.041C22.5677 18.1793 22.5599 18.4322 22.5211 19.2769C22.4856 20.0575 22.3549 20.4819 22.2457 20.7638C22.1002 21.1377 21.9269 21.4044 21.647 21.6842C21.367 21.964 21.1 22.1376 20.7262 22.2831C20.4445 22.3931 20.0201 22.5231 19.2397 22.5586C18.3959 22.5974 18.1425 22.6052 16.0048 22.6052C13.8671 22.6052 13.6144 22.5974 12.7709 22.5586ZM12.7046 8.08237C11.8524 8.12118 11.2701 8.25634 10.7616 8.45428C10.2349 8.65869 9.78911 8.93291 9.34359 9.37785C8.89807 9.82279 8.62463 10.2695 8.42028 10.7963C8.22241 11.3053 8.08728 11.8874 8.04848 12.7398C8.00903 13.5936 8 13.8665 8 16.041C8 18.2155 8.00903 18.4884 8.04848 19.3422C8.08728 20.1946 8.22241 20.7767 8.42028 21.2857C8.62463 21.8122 8.89814 22.2594 9.34359 22.7041C9.78904 23.1489 10.2349 23.4227 10.7616 23.6277C11.2711 23.8256 11.8524 23.9608 12.7046 23.9996C13.5585 24.0384 13.831 24.0481 16.0048 24.0481C18.1786 24.0481 18.4515 24.0391 19.305 23.9996C20.1572 23.9608 20.7392 23.8256 21.248 23.6277C21.7743 23.4227 22.2205 23.1491 22.666 22.7041C23.1115 22.2592 23.3844 21.8122 23.5893 21.2857C23.7872 20.7767 23.923 20.1946 23.9611 19.3422C23.9999 18.4878 24.009 18.2155 24.009 16.041C24.009 13.8665 23.9999 13.5936 23.9611 12.7398C23.9223 11.8873 23.7872 11.3049 23.5893 10.7963C23.3844 10.2698 23.1108 9.8235 22.666 9.37785C22.2212 8.93221 21.7743 8.65869 21.2487 8.45428C20.7392 8.25634 20.1572 8.12054 19.3057 8.08237C18.4522 8.04355 18.1793 8.03387 16.0054 8.03387C13.8316 8.03387 13.5585 8.04291 12.7046 8.08237Z" fill="white"/>
<path d="M13.337 16.041C13.337 14.567 14.5312 13.3717 16.0048 13.3717C17.4784 13.3717 18.6733 14.567 18.6733 16.041C18.6733 17.515 17.4784 18.7102 16.0048 18.7102C14.5312 18.7102 13.337 17.515 13.337 16.041ZM11.8944 16.041C11.8944 18.3118 13.7346 20.1525 16.0048 20.1525C18.275 20.1525 20.1152 18.3118 20.1152 16.041C20.1152 13.7702 18.275 11.9294 16.0048 11.9294C13.7346 11.9294 11.8944 13.7702 11.8944 16.041ZM19.3173 11.7664C19.3172 11.9564 19.3735 12.1422 19.479 12.3003C19.5845 12.4583 19.7344 12.5816 19.9099 12.6544C20.0854 12.7272 20.2786 12.7463 20.4649 12.7093C20.6513 12.6723 20.8225 12.5808 20.9569 12.4465C21.0912 12.3122 21.1828 12.141 21.2199 11.9546C21.2571 11.7682 21.2381 11.575 21.1655 11.3994C21.0929 11.2238 20.9698 11.0737 20.8119 10.9681C20.654 10.8624 20.4683 10.806 20.2783 10.8059H20.2779C20.0232 10.8061 19.779 10.9073 19.5989 11.0874C19.4188 11.2674 19.3175 11.5117 19.3173 11.7664ZM12.7709 22.5586C11.9904 22.523 11.5662 22.393 11.2843 22.2831C10.9106 22.1376 10.644 21.9643 10.3636 21.6842C10.0832 21.4041 9.90969 21.1377 9.76483 20.7638C9.65494 20.482 9.52495 20.0575 9.48947 19.2769C9.45066 18.4329 9.44291 18.1793 9.44291 16.041C9.44291 13.9028 9.4513 13.6499 9.48947 12.8052C9.52501 12.0246 9.65597 11.6009 9.76483 11.3183C9.91033 10.9444 10.0836 10.6777 10.3636 10.3973C10.6436 10.1168 10.91 9.94322 11.2843 9.79832C11.5661 9.6884 11.9904 9.55836 12.7709 9.52288C13.6146 9.48406 13.8681 9.47631 16.0048 9.47631C18.1415 9.47631 18.3952 9.4847 19.2397 9.52288C20.0201 9.55843 20.4436 9.68942 20.7262 9.79832C21.1 9.94322 21.3666 10.1172 21.647 10.3973C21.9273 10.6773 22.1002 10.9444 22.2457 11.3183C22.3556 11.6001 22.4856 12.0246 22.5211 12.8052C22.5599 13.6499 22.5677 13.9028 22.5677 16.041C22.5677 18.1793 22.5599 18.4322 22.5211 19.2769C22.4856 20.0575 22.3549 20.4819 22.2457 20.7638C22.1002 21.1377 21.9269 21.4044 21.647 21.6842C21.367 21.964 21.1 22.1376 20.7262 22.2831C20.4445 22.3931 20.0201 22.5231 19.2397 22.5586C18.3959 22.5974 18.1425 22.6052 16.0048 22.6052C13.8671 22.6052 13.6144 22.5974 12.7709 22.5586ZM12.7046 8.08237C11.8524 8.12118 11.2701 8.25634 10.7616 8.45428C10.2349 8.65869 9.78911 8.93291 9.34359 9.37785C8.89807 9.82279 8.62463 10.2695 8.42028 10.7963C8.22241 11.3053 8.08728 11.8874 8.04848 12.7398C8.00903 13.5936 8 13.8665 8 16.041C8 18.2155 8.00903 18.4884 8.04848 19.3422C8.08728 20.1946 8.22241 20.7767 8.42028 21.2857C8.62463 21.8122 8.89814 22.2594 9.34359 22.7041C9.78904 23.1489 10.2349 23.4227 10.7616 23.6277C11.2711 23.8256 11.8524 23.9608 12.7046 23.9996C13.5585 24.0384 13.831 24.0481 16.0048 24.0481C18.1786 24.0481 18.4515 24.0391 19.305 23.9996C20.1572 23.9608 20.7392 23.8256 21.248 23.6277C21.7743 23.4227 22.2205 23.1491 22.666 22.7041C23.1115 22.2592 23.3844 21.8122 23.5893 21.2857C23.7872 20.7767 23.923 20.1946 23.9611 19.3422C23.9999 18.4878 24.009 18.2155 24.009 16.041C24.009 13.8665 23.9999 13.5936 23.9611 12.7398C23.9223 11.8873 23.7872 11.3049 23.5893 10.7963C23.3844 10.2698 23.1108 9.8235 22.666 9.37785C22.2212 8.93221 21.7743 8.65869 21.2487 8.45428C20.7392 8.25634 20.1572 8.12054 19.3057 8.08237C18.4522 8.04355 18.1793 8.03387 16.0054 8.03387C13.8316 8.03387 13.5585 8.04291 12.7046 8.08237Z" fill="white"/>
</svg>
