<svg width="32" height="32" viewBox="0 0 32 32" fill="none" xmlns="http://www.w3.org/2000/svg">
<path d="M7.91069 23.1349H10.8753V15.9351L6.64014 12.7587V21.8644C6.64014 22.5674 7.20977 23.1349 7.91069 23.1349Z" fill="white"/>
<path d="M21.0396 23.1349H24.0042C24.7072 23.1349 25.2747 22.5653 25.2747 21.8644V12.7587L21.0396 15.9351" fill="white"/>
<path d="M21.0396 10.4295V15.9352L25.2747 12.7588V11.0648C25.2747 9.49352 23.4811 8.59778 22.2254 9.54011" fill="white"/>
<path d="M10.8755 15.9351V10.4294L15.9577 14.2411L21.0399 10.4294V15.9351L15.9577 19.7468" fill="white"/>
<path d="M6.64014 11.0648V12.7588L10.8753 15.9352V10.4295L9.68947 9.54011C8.43162 8.59778 6.64014 9.49352 6.64014 11.0648Z" fill="white"/>
</svg>
