<svg width="32" height="32" viewBox="0 0 32 32" fill="none" xmlns="http://www.w3.org/2000/svg">
<path fill-rule="evenodd" clip-rule="evenodd" d="M12.4471 7.33948C13.4083 7.33948 14.3415 7.60919 15.1447 8.10651C15.4306 8.07599 15.7185 8.06061 16.0072 8.06061C17.0696 8.06061 18.1216 8.26894 19.1031 8.6737C20.0846 9.07846 20.9764 9.67172 21.7277 10.4196C22.4789 11.1675 23.0748 12.0554 23.4813 13.0326C23.8879 14.0098 24.0971 15.0571 24.0971 16.1148C24.0971 16.4906 24.0707 16.8652 24.0184 17.2357C24.1177 17.4116 24.2066 17.5936 24.2844 17.7808C24.5412 18.3979 24.6734 19.0594 24.6734 19.7274C24.6734 20.3955 24.5412 21.057 24.2844 21.6741C24.0276 22.2913 23.6513 22.8521 23.1768 23.3245C22.7024 23.7968 22.1391 24.1715 21.5192 24.4272C20.8993 24.6828 20.2348 24.8144 19.5639 24.8144C18.6447 24.8144 17.7511 24.5678 16.9722 24.1114C16.6526 24.1497 16.3304 24.169 16.0072 24.169C14.9448 24.169 13.8928 23.9606 12.9113 23.5559C11.9298 23.1511 11.038 22.5578 10.2867 21.8099C9.53551 21.062 8.93961 20.1742 8.53305 19.197C8.12649 18.2198 7.91724 17.1725 7.91724 16.1148C7.91724 15.7187 7.94658 15.3242 8.00462 14.9342C7.57235 14.1756 7.33936 13.3121 7.33936 12.4247C7.33936 11.076 7.87749 9.78255 8.83538 8.82889C9.79327 7.87524 11.0925 7.33948 12.4471 7.33948ZM12.9351 14.9952C13.1326 15.3328 13.4054 15.6203 13.7323 15.8352C14.1655 16.1183 14.6259 16.3574 15.1068 16.5488C15.6444 16.7732 16.0616 16.9635 16.3582 17.1196C16.609 17.2428 16.8367 17.4084 17.0312 17.6089C17.1783 17.7649 17.2601 17.9712 17.2597 18.1856C17.2661 18.3367 17.2363 18.4872 17.1728 18.6246C17.1093 18.7619 17.014 18.8822 16.8947 18.9754C16.5761 19.1896 16.1949 19.2911 15.8118 19.2638C15.5952 19.266 15.379 19.2437 15.1674 19.1974C14.9958 19.1597 14.828 19.1067 14.6659 19.0389C14.524 18.9776 14.3302 18.8855 14.0845 18.7628C13.8869 18.6576 13.667 18.601 13.4431 18.598C13.2421 18.5898 13.0457 18.659 12.8943 18.7914C12.8221 18.86 12.7657 18.9435 12.729 19.036C12.6922 19.1285 12.676 19.2279 12.6815 19.3273C12.677 19.5157 12.7339 19.7005 12.8436 19.8538C12.9758 20.0212 13.1467 20.1539 13.3416 20.2406C14.1041 20.5707 14.9306 20.7269 15.7611 20.6979C16.3654 20.71 16.9669 20.6121 17.5362 20.409C18.0085 20.2415 18.4197 19.9365 18.717 19.5335C19.009 19.1078 19.1569 18.5999 19.1392 18.0842C19.1506 17.663 19.045 17.2469 18.8342 16.882C18.6202 16.5347 18.3318 16.2391 17.9898 16.0164C17.5568 15.7373 17.0974 15.5015 16.6183 15.3121C16.5671 15.2871 16.514 15.2658 16.4597 15.2486C15.9687 15.0459 15.5993 14.8832 15.3517 14.7605C15.1306 14.657 14.9304 14.5138 14.761 14.3382C14.6184 14.1887 14.5397 13.9896 14.5417 13.7831C14.5349 13.6258 14.5705 13.4696 14.6447 13.3307C14.719 13.1919 14.8292 13.0755 14.9639 12.9938C15.2831 12.8037 15.6504 12.7099 16.0217 12.7235C16.3066 12.7205 16.5906 12.7558 16.8661 12.8284C17.1654 12.9146 17.4583 13.0216 17.7426 13.1487C17.8579 13.2022 17.9834 13.2304 18.1106 13.2315C18.203 13.2339 18.2949 13.2168 18.3802 13.1813C18.4655 13.1457 18.5423 13.0925 18.6056 13.0252C18.6725 12.9522 18.7244 12.8667 18.7582 12.7737C18.792 12.6806 18.8072 12.5818 18.8027 12.4829C18.8057 12.2926 18.7392 12.1077 18.6156 11.9628C18.4478 11.7867 18.2396 11.6539 18.0091 11.576C17.758 11.4839 17.4984 11.417 17.2341 11.3762C16.8648 11.3157 16.491 11.287 16.1168 11.2906C15.5448 11.2872 14.9766 11.3828 14.4373 11.5731C13.9415 11.7403 13.4988 12.0357 13.1544 12.4294C12.823 12.8213 12.6478 13.3215 12.6622 13.8343C12.6505 14.2384 12.7445 14.6386 12.9351 14.9952Z" fill="white"/>
</svg>
