<svg width="983" height="707" viewBox="0 0 983 707" fill="none" xmlns="http://www.w3.org/2000/svg">
<g style="mix-blend-mode:overlay">
<path d="M468.969 451.22L469.062 451.23L469.078 451.138L469.209 450.366L469.227 450.261L469.12 450.25L299.656 432.974L299.549 432.963L299.546 433.07L299.526 433.669L299.523 433.762L299.616 433.771L468.969 451.22Z" fill="#2E3134" stroke="black" stroke-width="0.2"/>
<path d="M301.053 559.662L301.157 559.666L301.156 559.562L299.986 433.467L299.985 433.371L299.889 433.368L299.29 433.348L299.186 433.345L299.187 433.449L300.357 559.544L300.358 559.64L300.454 559.643L301.053 559.662Z" fill="#2E3134" stroke="black" stroke-width="0.2"/>
<path d="M300.86 559.946L300.917 560.017L300.993 559.968L469.287 451.149L469.373 451.094L469.316 451.009L468.879 450.36L468.824 450.279L468.741 450.332L300.478 559.293L300.385 559.353L300.454 559.44L300.86 559.946Z" fill="#2E3134" stroke="black" stroke-width="0.2"/>
<path d="M486.881 564.64L486.98 564.642L486.984 564.543L487.003 563.944L487.006 563.844L486.906 563.841L300.843 559.21L300.744 559.208L300.741 559.307L300.721 559.906L300.718 560.007L300.819 560.009L486.881 564.64Z" fill="#2E3134" stroke="black" stroke-width="0.2"/>
<path d="M486.661 564.657L486.746 564.717L486.802 564.63L487.136 564.112L487.188 564.031L487.11 563.975L299.846 433.108L299.761 433.048L299.705 433.135L299.371 433.653L299.318 433.734L299.397 433.79L486.661 564.657Z" fill="#2E3134" stroke="black" stroke-width="0.2"/>
<path d="M487.265 564.263L487.358 564.243L487.343 564.15L469.433 450.731L469.42 450.649L469.337 450.646L468.739 450.627L468.618 450.623L468.636 450.742L486.435 564.334L486.452 564.438L486.555 564.416L487.265 564.263Z" fill="#2E3134" stroke="black" stroke-width="0.2"/>
<path d="M300.451 559.872L300.508 559.975L300.601 559.901L301.107 559.495L301.173 559.442L301.132 559.368L199.258 377.093L199.205 376.998L199.115 377.059L198.466 377.496L198.389 377.548L198.434 377.628L300.451 559.872Z" fill="#2E3134" stroke="black" stroke-width="0.2"/>
<path d="M299.424 433.792L299.506 433.837L299.557 433.759L299.891 433.241L299.949 433.151L299.856 433.099L199.009 376.95L198.915 376.897L198.87 376.995L198.566 377.656L198.528 377.74L198.609 377.785L299.424 433.792Z" fill="#2E3134" stroke="black" stroke-width="0.2"/>
<path d="M300.451 559.872L300.508 559.975L300.601 559.901L301.107 559.495L301.173 559.442L301.132 559.368L199.258 377.093L199.205 376.998L199.115 377.059L198.466 377.496L198.389 377.548L198.434 377.628L300.451 559.872Z" fill="#2E3134" stroke="black" stroke-width="0.2"/>
<path d="M299.424 433.792L299.506 433.837L299.557 433.759L299.891 433.241L299.949 433.151L299.856 433.099L199.009 376.95L198.915 376.897L198.87 376.995L198.566 377.656L198.528 377.74L198.609 377.785L299.424 433.792Z" fill="#2E3134" stroke="black" stroke-width="0.2"/>
<path d="M197.61 374.62L197.557 374.536L197.472 374.589L196.981 374.9L196.897 374.954L196.95 375.038L198.505 377.493L198.559 377.578L198.643 377.524L199.134 377.213L199.219 377.16L199.165 377.075L197.61 374.62Z" fill="#2E3134" stroke="black" stroke-width="0.2"/>
<path d="M197.61 374.62L197.557 374.536L197.472 374.589L196.981 374.9L196.897 374.954L196.95 375.038L198.505 377.493L198.559 377.578L198.643 377.524L199.134 377.213L199.219 377.16L199.165 377.075L197.61 374.62Z" fill="#2E3134" stroke="black" stroke-width="0.2"/>
<path d="M300.409 559.88L300.467 559.983L300.559 559.909L301.066 559.503L301.132 559.45L301.09 559.376L197.671 374.759L197.624 374.676L197.539 374.718L197.002 374.982L196.907 375.029L196.959 375.121L300.409 559.88Z" fill="#2E3134" stroke="black" stroke-width="0.2"/>
<path d="M197.439 374.427L197.352 374.378L197.303 374.465L197.014 374.969L196.965 375.056L197.051 375.106L299.349 433.607L299.436 433.656L299.485 433.57L299.774 433.065L299.824 432.978L299.737 432.929L197.439 374.427Z" fill="#2E3134" stroke="black" stroke-width="0.2"/>
<path d="M197.302 375.192L197.341 375.27L197.424 375.242L335.866 328.6L335.969 328.566L335.926 328.466L335.631 327.786L335.594 327.702L335.507 327.731L197.095 374.515L196.987 374.552L197.037 374.654L197.302 375.192Z" fill="#2E3134" stroke="black" stroke-width="0.2"/>
<path d="M335.896 327.87L335.862 327.776L335.768 327.809L198.79 376.734L198.696 376.768L198.73 376.862L198.925 377.409L198.959 377.503L199.053 377.47L336.031 328.545L336.125 328.511L336.091 328.417L335.896 327.87Z" fill="#2E3134" stroke="black" stroke-width="0.2"/>
<path d="M335.896 327.87L335.862 327.776L335.768 327.809L198.79 376.734L198.696 376.768L198.73 376.862L198.925 377.409L198.959 377.503L199.053 377.47L336.031 328.545L336.125 328.511L336.091 328.417L335.896 327.87Z" fill="#2E3134" stroke="black" stroke-width="0.2"/>
<path d="M301.055 559.803L301.163 559.83L301.179 559.721L336.171 328.32L336.185 328.23L336.097 328.208L335.468 328.046L335.361 328.019L335.344 328.128L300.352 559.529L300.339 559.618L300.426 559.641L301.055 559.803Z" fill="#2E3134" stroke="black" stroke-width="0.2"/>
<path d="M299.87 433.702L299.97 433.748L300.006 433.644L336.168 328.338L336.204 328.235L336.099 328.208L335.469 328.047L335.38 328.024L335.35 328.111L299.157 433.275L299.128 433.361L299.21 433.398L299.87 433.702Z" fill="#2E3134" stroke="black" stroke-width="0.2"/>
<path d="M335.976 328.129L335.902 328.061L335.835 328.135L335.442 328.563L335.374 328.636L335.447 328.704L468.753 451.216L468.827 451.284L468.894 451.21L469.288 450.783L469.355 450.709L469.282 450.641L335.976 328.129Z" fill="#2E3134" stroke="black" stroke-width="0.2"/>
<path d="M584.79 366.644L584.879 366.658L584.902 366.57L585.063 365.941L585.091 365.834L584.981 365.817L335.692 327.845L335.58 327.828L335.577 327.941L335.557 328.54L335.554 328.628L335.642 328.642L584.79 366.644Z" fill="#2E3134" stroke="black" stroke-width="0.2"/>
<path d="M487.133 564.558L487.227 564.619L487.277 564.519L585.181 366.378L585.229 366.281L585.128 366.241L584.641 366.048L584.555 366.015L584.515 366.097L486.58 564.096L486.54 564.176L486.615 564.224L487.133 564.558Z" fill="#2E3134" stroke="black" stroke-width="0.2"/>
<path d="M469.192 451.114L469.25 451.2L469.334 451.139L585.179 366.559L585.264 366.497L585.198 366.416L584.792 365.909L584.732 365.834L584.655 365.891L468.779 450.328L468.701 450.385L468.755 450.465L469.192 451.114Z" fill="#2E3134" stroke="black" stroke-width="0.2"/>
<path d="M335.462 328.489L335.525 328.559L335.599 328.5L336.106 328.093L336.188 328.027L336.118 327.949L224.877 203.583L224.801 203.499L224.727 203.585L224.25 204.133L224.192 204.2L224.251 204.265L335.462 328.489Z" fill="#2E3134" stroke="black" stroke-width="0.2"/>
<path d="M225.099 203.817L225 203.8L224.983 203.899L195.995 374.66L195.978 374.759L196.077 374.776L196.649 374.873L196.748 374.89L196.765 374.791L225.754 204.03L225.77 203.931L225.672 203.914L225.099 203.817Z" fill="#2E3134" stroke="black" stroke-width="0.2"/>
<path d="M199.179 377.529L199.287 377.557L199.303 377.447L224.928 203.955L224.944 203.844L224.832 203.841L224.234 203.821L224.144 203.818L224.131 203.906L198.476 377.256L198.463 377.345L198.55 377.367L199.179 377.529Z" fill="#2E3134" stroke="black" stroke-width="0.2"/>
<path d="M199.179 377.529L199.287 377.557L199.303 377.447L224.928 203.955L224.944 203.844L224.832 203.841L224.234 203.821L224.144 203.818L224.131 203.906L198.476 377.256L198.463 377.345L198.55 377.367L199.179 377.529Z" fill="#2E3134" stroke="black" stroke-width="0.2"/>
<path d="M299.241 433.618L299.277 433.727L299.381 433.676L299.918 433.412L299.996 433.373L299.969 433.291L224.921 203.762L224.885 203.652L224.781 203.703L224.244 203.968L224.166 204.006L224.193 204.088L299.241 433.618Z" fill="#2E3134" stroke="black" stroke-width="0.2"/>
<path d="M224.613 204.378L224.731 204.398L224.73 204.278L224.719 203.537L224.717 203.454L224.635 203.44L57.2885 175.302L57.1979 175.287L57.175 175.376L57.0134 176.005L56.9864 176.111L57.0936 176.129L224.613 204.378Z" fill="#2E3134" stroke="black" stroke-width="0.2"/>
<path d="M53.5403 433.458L53.642 433.462L53.6436 433.36L57.5786 175.804L57.5801 175.706L57.4819 175.702L56.8831 175.683L56.7814 175.68L56.7799 175.781L52.8448 433.337L52.8433 433.436L52.9415 433.439L53.5403 433.458Z" fill="#2E3134" stroke="black" stroke-width="0.2"/>
<path d="M196.98 375.126L197.041 375.213L197.124 375.147L197.631 374.74L197.705 374.681L197.651 374.605L57.5049 175.46L57.4437 175.373L57.3606 175.439L56.8537 175.846L56.7804 175.904L56.8344 175.981L196.98 375.126Z" fill="#2E3134" stroke="black" stroke-width="0.2"/>
<path d="M198.556 377.611L198.617 377.698L198.701 377.631L199.207 377.225L199.281 377.166L199.227 377.089L57.505 175.46L57.4437 175.372L57.3606 175.439L56.8537 175.846L56.7804 175.904L56.8344 175.981L198.556 377.611Z" fill="#2E3134" stroke="black" stroke-width="0.2"/>
<path d="M198.556 377.611L198.617 377.698L198.701 377.631L199.207 377.225L199.281 377.166L199.227 377.089L57.505 175.46L57.4437 175.372L57.3606 175.439L56.8537 175.846L56.7804 175.904L56.8344 175.981L198.556 377.611Z" fill="#2E3134" stroke="black" stroke-width="0.2"/>
<path d="M224.627 203.516L224.528 203.504L224.517 203.604L224.451 204.181L224.44 204.281L224.539 204.292L450.77 230.085L450.87 230.096L450.881 229.997L450.947 229.419L450.958 229.32L450.859 229.308L224.627 203.516Z" fill="#2E3134" stroke="black" stroke-width="0.2"/>
<path d="M584.574 366.502L584.637 366.567L584.708 366.51L585.215 366.104L585.301 366.034L585.224 365.955L451.143 229.42L451.08 229.355L451.009 229.412L450.502 229.818L450.416 229.888L450.493 229.967L584.574 366.502Z" fill="#2E3134" stroke="black" stroke-width="0.2"/>
<path d="M335.868 328.542L335.932 328.623L336.011 328.556L451.078 230.023L451.151 229.96L451.091 229.884L450.684 229.377L450.619 229.297L450.541 229.364L335.474 327.897L335.401 327.96L335.461 328.035L335.868 328.542Z" fill="#2E3134" stroke="black" stroke-width="0.2"/>
<path d="M299.829 433.699L299.908 433.75L299.964 433.675L451.223 229.978L451.287 229.892L451.197 229.834L450.679 229.5L450.601 229.449L450.545 229.524L299.285 433.222L299.222 433.307L299.311 433.365L299.829 433.699Z" fill="#2E3134" stroke="black" stroke-width="0.2"/>
<path d="M469.323 450.849L469.435 450.853L469.426 450.741L451.363 229.737L451.356 229.644L451.262 229.645L450.521 229.657L450.414 229.658L450.423 229.765L468.628 450.738L468.635 450.827L468.725 450.83L469.323 450.849Z" fill="#2E3134" stroke="black" stroke-width="0.2"/>
<path d="M694.68 387.399L694.772 387.417L694.795 387.326L694.957 386.696L694.983 386.593L694.878 386.573L585.013 365.813L584.921 365.796L584.898 365.887L584.736 366.516L584.71 366.619L584.814 366.639L694.68 387.399Z" fill="#2E3134" stroke="black" stroke-width="0.2"/>
<path d="M468.995 451.117L469.018 451.221L469.12 451.192L694.831 387.372L694.921 387.346L694.901 387.255L694.779 386.687L694.756 386.582L694.654 386.611L468.913 450.289L468.822 450.315L468.842 450.406L468.995 451.117Z" fill="#2E3134" stroke="black" stroke-width="0.2"/>
<path d="M668.283 537.27L668.387 537.297L668.406 537.191L695.206 387.08L695.223 386.989L695.133 386.965L694.503 386.804L694.399 386.777L694.38 386.883L667.58 536.994L667.563 537.085L667.653 537.108L668.283 537.27Z" fill="#2E3134" stroke="black" stroke-width="0.2"/>
<path d="M667.606 537.349L667.65 537.439L667.74 537.395L668.277 537.13L668.367 537.087L668.323 536.997L585.228 365.984L585.173 365.872L585.075 365.95L584.568 366.357L584.506 366.407L584.541 366.478L667.606 537.349Z" fill="#2E3134" stroke="black" stroke-width="0.2"/>
<path d="M486.961 563.904L486.862 563.919L486.877 564.017L486.963 564.592L486.978 564.691L487.077 564.676L668.146 537.565L668.245 537.55L668.23 537.451L668.144 536.877L668.129 536.778L668.031 536.792L486.961 563.904Z" fill="#2E3134" stroke="black" stroke-width="0.2"/>
<path d="M469.099 450.269L469.007 450.229L468.967 450.321L468.736 450.854L468.696 450.946L468.788 450.986L667.644 537.344L667.735 537.383L667.775 537.292L668.007 536.759L668.047 536.667L667.955 536.627L469.099 450.269Z" fill="#2E3134" stroke="black" stroke-width="0.2"/>
<path d="M395.305 639.343L395.368 639.398L395.433 639.345L487.228 564.558L487.305 564.495L487.243 564.418L486.836 563.911L486.773 563.832L486.695 563.896L394.758 638.713L394.666 638.789L394.756 638.867L395.305 639.343Z" fill="#2E3134" stroke="black" stroke-width="0.2"/>
<path d="M300.942 559.256L300.866 559.192L300.801 559.268L300.427 559.713L300.363 559.79L300.439 559.854L394.701 639.213L394.777 639.277L394.842 639.201L395.216 638.756L395.28 638.68L395.204 638.615L300.942 559.256Z" fill="#2E3134" stroke="black" stroke-width="0.2"/>
<path d="M299.777 433.368L299.735 433.278L299.645 433.32L299.118 433.565L299.027 433.607L299.069 433.698L394.564 639.277L394.607 639.368L394.697 639.326L395.224 639.081L395.315 639.039L395.273 638.948L299.777 433.368Z" fill="#2E3134" stroke="black" stroke-width="0.2"/>
<path d="M395.299 639.219L395.392 639.255L395.429 639.162L469.455 450.926L469.49 450.838L469.404 450.798L468.744 450.495L468.648 450.451L468.609 450.549L394.755 638.897L394.719 638.99L394.812 639.027L395.299 639.219Z" fill="#2E3134" stroke="black" stroke-width="0.2"/>
<path d="M668.307 537.273L668.395 537.276L668.409 537.189L701.011 334.694L701.025 334.604L700.937 334.582L700.307 334.42L700.201 334.393L700.184 334.501L667.612 537.138L667.594 537.25L667.708 537.254L668.307 537.273Z" fill="#2E3134" stroke="black" stroke-width="0.2"/>
<path d="M695.054 387.174L695.147 387.177L695.157 387.085L700.959 334.701L700.97 334.594L700.862 334.59L700.264 334.57L700.171 334.567L700.161 334.659L694.36 387.043L694.348 387.151L694.456 387.154L695.054 387.174Z" fill="#2E3134" stroke="black" stroke-width="0.2"/>
<path d="M584.89 366.527L584.913 366.631L585.015 366.603L700.823 334.948L700.94 334.916L700.887 334.807L700.622 334.27L700.586 334.196L700.506 334.217L584.839 365.842L584.748 365.867L584.768 365.959L584.89 366.527Z" fill="#2E3134" stroke="black" stroke-width="0.2"/>
<path d="M869.249 368.495L869.341 368.514L869.365 368.422L869.526 367.793L869.553 367.69L869.449 367.67L700.655 334.195L700.562 334.177L700.538 334.269L700.377 334.898L700.35 335L700.454 335.021L869.249 368.495Z" fill="#2E3134" stroke="black" stroke-width="0.2"/>
<path d="M869.49 368.597L869.6 368.586L869.577 368.477L869.424 367.767L869.405 367.679L869.315 367.688L694.719 386.598L694.609 386.61L694.632 386.719L694.755 387.287L694.774 387.375L694.863 387.365L869.49 368.597Z" fill="#2E3134" stroke="black" stroke-width="0.2"/>
<path d="M869.174 367.564L869.106 367.491L869.033 367.56L789.595 442.38L789.522 442.448L789.591 442.521L789.989 442.944L790.058 443.017L790.131 442.948L869.569 368.129L869.642 368.06L869.573 367.987L869.174 367.564Z" fill="#2E3134" stroke="black" stroke-width="0.2"/>
<path d="M700.9 334.633L700.836 334.556L700.759 334.62L700.311 334.99L700.234 335.053L700.297 335.13L789.445 443.175L789.508 443.253L789.586 443.189L790.034 442.819L790.111 442.755L790.047 442.678L700.9 334.633Z" fill="#2E3134" stroke="black" stroke-width="0.2"/>
<path d="M668.086 537.415L668.148 537.491L668.226 537.431L790.107 442.929L790.203 442.854L790.111 442.774L789.563 442.298L789.501 442.244L789.436 442.294L667.696 536.766L667.616 536.828L667.68 536.908L668.086 537.415Z" fill="#2E3134" stroke="black" stroke-width="0.2"/>
<path d="M789.57 443.027L789.652 443.075L789.704 442.994L790.038 442.476L790.095 442.389L790.005 442.336L695.066 386.697L694.983 386.649L694.931 386.729L694.597 387.247L694.541 387.335L694.631 387.388L789.57 443.027Z" fill="#2E3134" stroke="black" stroke-width="0.2"/>
<path d="M789.602 443.033L789.689 443.066L789.728 442.982L790.032 442.322L790.077 442.224L789.976 442.186L585.029 365.818L584.925 365.779L584.898 365.887L584.736 366.516L584.714 366.603L584.798 366.635L789.602 443.033Z" fill="#2E3134" stroke="black" stroke-width="0.2"/>
<path d="M700.473 335.002L700.566 335.05L700.61 334.955L700.913 334.295L700.953 334.208L700.868 334.165L480.937 220.001L480.843 219.953L480.8 220.048L480.496 220.708L480.456 220.795L480.541 220.839L700.473 335.002Z" fill="#2E3134" stroke="black" stroke-width="0.2"/>
<path d="M450.924 229.994L450.962 230.07L451.043 230.045L480.717 220.824L480.805 220.797L480.785 220.707L480.663 220.139L480.64 220.032L480.535 220.065L450.72 229.316L450.608 229.351L450.66 229.456L450.924 229.994Z" fill="#2E3134" stroke="black" stroke-width="0.2"/>
<path d="M224.461 203.477L224.361 203.47L224.355 203.57L224.318 204.15L224.311 204.25L224.411 204.256L480.494 220.746L480.594 220.752L480.6 220.652L480.637 220.072L480.644 219.973L480.544 219.966L224.461 203.477Z" fill="#2E3134" stroke="black" stroke-width="0.2"/>
<path d="M584.573 366.488L584.634 366.574L584.716 366.508L585.223 366.102L585.297 366.042L585.242 365.966L480.977 220.178L480.916 220.092L480.833 220.158L480.326 220.565L480.252 220.624L480.308 220.701L584.573 366.488Z" fill="#2E3134" stroke="black" stroke-width="0.2"/>
<path d="M480.132 219.567L480.072 219.487L479.992 219.547L335.717 328.208L335.637 328.268L335.697 328.348L336.047 328.812L336.107 328.892L336.187 328.832L480.462 220.171L480.542 220.111L480.482 220.031L480.132 219.567Z" fill="#2E3134" stroke="black" stroke-width="0.2"/>
<path d="M469.322 450.85L469.421 450.853L469.426 450.755L481.036 220.53L481.04 220.449L480.961 220.428L480.332 220.267L480.213 220.236L480.207 220.359L468.627 450.726L468.622 450.827L468.724 450.831L469.322 450.85Z" fill="#2E3134" stroke="black" stroke-width="0.2"/>
<path d="M700.473 335.002L700.566 335.05L700.61 334.955L700.913 334.295L700.953 334.208L700.868 334.165L480.937 220.001L480.843 219.953L480.8 220.048L480.496 220.708L480.456 220.795L480.541 220.839L700.473 335.002Z" fill="#2E3134" stroke="black" stroke-width="0.2"/>
<path d="M450.924 229.994L450.962 230.07L451.043 230.045L480.717 220.824L480.805 220.797L480.785 220.707L480.663 220.139L480.64 220.032L480.535 220.065L450.72 229.316L450.608 229.351L450.66 229.456L450.924 229.994Z" fill="#2E3134" stroke="black" stroke-width="0.2"/>
<path d="M224.461 203.477L224.361 203.47L224.355 203.57L224.318 204.15L224.311 204.25L224.411 204.256L480.494 220.746L480.594 220.752L480.6 220.652L480.637 220.072L480.644 219.973L480.544 219.966L224.461 203.477Z" fill="#2E3134" stroke="black" stroke-width="0.2"/>
<path d="M584.573 366.488L584.634 366.574L584.716 366.508L585.223 366.102L585.297 366.042L585.242 365.966L480.977 220.178L480.916 220.092L480.833 220.158L480.326 220.565L480.252 220.624L480.308 220.701L584.573 366.488Z" fill="#2E3134" stroke="black" stroke-width="0.2"/>
<path d="M480.132 219.567L480.072 219.487L479.992 219.547L335.717 328.208L335.637 328.268L335.697 328.348L336.047 328.812L336.107 328.892L336.187 328.832L480.462 220.171L480.542 220.111L480.482 220.031L480.132 219.567Z" fill="#2E3134" stroke="black" stroke-width="0.2"/>
<path d="M469.322 450.85L469.421 450.853L469.426 450.755L481.036 220.53L481.04 220.449L480.961 220.428L480.332 220.267L480.213 220.236L480.207 220.359L468.627 450.726L468.622 450.827L468.724 450.831L469.322 450.85Z" fill="#2E3134" stroke="black" stroke-width="0.2"/>
<path d="M790.008 442.793L790.11 442.833L790.141 442.728L827.372 315.49L827.398 315.402L827.313 315.369L826.826 315.176L826.724 315.136L826.693 315.241L789.462 442.48L789.436 442.567L789.521 442.601L790.008 442.793Z" fill="#2E3134" stroke="black" stroke-width="0.2"/>
<path d="M869.028 368.344L869.091 368.422L869.169 368.359L869.676 367.952L869.754 367.89L869.691 367.812L827.265 315.122L827.194 315.034L827.116 315.115L826.751 315.491L826.689 315.554L826.744 315.623L869.028 368.344Z" fill="#2E3134" stroke="black" stroke-width="0.2"/>
<path d="M827.052 315.912L827.138 315.899L827.137 315.812L827.126 315.071L827.124 314.956L827.011 314.974L700.642 334.189L700.56 334.202L700.557 334.285L700.538 334.883L700.534 335.004L700.653 334.986L827.052 315.912Z" fill="#2E3134" stroke="black" stroke-width="0.2"/>
<path d="M694.896 387.303L694.948 387.368L695.021 387.328L827.222 315.871L827.303 315.827L827.266 315.743L826.971 315.064L826.928 314.964L826.832 315.015L694.52 386.646L694.414 386.703L694.489 386.796L694.896 387.303Z" fill="#2E3134" stroke="black" stroke-width="0.2"/>
<path d="M827.08 315.905L827.16 315.888L827.159 315.806L827.148 315.065L827.146 314.944L827.028 314.969L584.85 365.839L584.752 365.86L584.773 365.958L584.895 366.526L584.916 366.623L585.014 366.603L827.08 315.905Z" fill="#2E3134" stroke="black" stroke-width="0.2"/>
<path d="M480.495 220.479L480.399 220.45L480.37 220.546L435.544 370.483L435.516 370.579L435.611 370.608L436.168 370.774L436.264 370.803L436.293 370.707L481.119 220.77L481.148 220.674L481.052 220.645L480.495 220.479Z" fill="#2E3134" stroke="black" stroke-width="0.2"/>
<path d="M480.495 220.479L480.399 220.45L480.37 220.546L435.544 370.483L435.516 370.579L435.611 370.608L436.168 370.774L436.264 370.803L436.293 370.707L481.119 220.77L481.148 220.674L481.052 220.645L480.495 220.479Z" fill="#2E3134" stroke="black" stroke-width="0.2"/>
<path d="M436.063 370.46L436.175 370.489L436.187 370.374L451.217 229.787L451.228 229.68L451.12 229.677L450.522 229.657L450.429 229.654L450.419 229.747L435.359 370.191L435.35 370.277L435.433 370.299L436.063 370.46Z" fill="#2E3134" stroke="black" stroke-width="0.2"/>
<path d="M584.855 366.635L584.949 366.633L584.952 366.538L584.972 365.94L584.975 365.834L584.869 365.836L435.901 369.857L435.806 369.86L435.803 369.954L435.784 370.552L435.78 370.659L435.886 370.656L584.855 366.635Z" fill="#2E3134" stroke="black" stroke-width="0.2"/>
<path d="M435.684 370.682L435.791 370.727L435.82 370.615L435.982 369.985L436.003 369.902L435.923 369.868L335.886 327.814L335.797 327.777L335.757 327.865L335.453 328.525L335.41 328.619L335.505 328.659L435.684 370.682Z" fill="#2E3134" stroke="black" stroke-width="0.2"/>
<path d="M435.878 370.659L435.973 370.657L435.976 370.562L435.996 369.964L435.999 369.858L435.894 369.86L197.272 374.479L197.178 374.481L197.174 374.576L197.155 375.175L197.151 375.28L197.257 375.278L435.878 370.659Z" fill="#2E3134" stroke="black" stroke-width="0.2"/>
<path d="M435.874 370.659L435.967 370.656L435.97 370.562L435.99 369.963L435.994 369.857L435.887 369.86L198.842 376.963L198.748 376.966L198.745 377.06L198.725 377.659L198.722 377.765L198.828 377.762L435.874 370.659Z" fill="#2E3134" stroke="black" stroke-width="0.2"/>
<path d="M435.874 370.659L435.967 370.656L435.97 370.562L435.99 369.963L435.994 369.857L435.887 369.86L198.842 376.963L198.748 376.966L198.745 377.06L198.725 377.659L198.722 377.765L198.828 377.762L435.874 370.659Z" fill="#2E3134" stroke="black" stroke-width="0.2"/>
<path d="M436.256 370.124L436.23 370.027L436.134 370.052L435.572 370.2L435.475 370.226L435.5 370.323L486.572 564.231L486.598 564.328L486.695 564.302L487.257 564.154L487.353 564.129L487.328 564.032L436.256 370.124Z" fill="#2E3134" stroke="black" stroke-width="0.2"/>
<path d="M435.556 369.731L435.474 369.674L435.416 369.755L300.59 559.159L300.532 559.241L300.613 559.299L301.087 559.636L301.168 559.694L301.226 559.612L436.052 370.208L436.11 370.126L436.029 370.068L435.556 369.731Z" fill="#2E3134" stroke="black" stroke-width="0.2"/>
<path d="M299.68 433.686L299.723 433.774L299.812 433.733L436.042 370.622L436.135 370.579L436.089 370.487L435.825 369.95L435.782 369.862L435.693 369.903L299.463 433.013L299.37 433.057L299.415 433.148L299.68 433.686Z" fill="#2E3134" stroke="black" stroke-width="0.2"/>
<path d="M468.661 450.911L468.701 451.009L468.797 450.962L469.335 450.698L469.419 450.656L469.383 450.57L436.148 370.183L436.108 370.085L436.012 370.132L435.474 370.396L435.39 370.438L435.426 370.524L468.661 450.911Z" fill="#2E3134" stroke="black" stroke-width="0.2"/>
<path d="M436.069 370.068L435.983 370.017L435.932 370.104L435.64 370.606L435.589 370.692L435.676 370.743L598.989 465.961L599.075 466.012L599.125 465.925L599.418 465.423L599.468 465.337L599.382 465.286L436.069 370.068Z" fill="#2E3134" stroke="black" stroke-width="0.2"/>
<path d="M789.833 443.146L789.923 443.135L789.922 443.045L789.91 442.304L789.909 442.193L789.799 442.206L599.132 465.175L599.023 465.188L599.046 465.296L599.169 465.864L599.188 465.953L599.278 465.942L789.833 443.146Z" fill="#2E3134" stroke="black" stroke-width="0.2"/>
<path d="M700.315 334.31L700.236 334.248L700.175 334.327L598.795 465.332L598.734 465.411L598.813 465.472L599.273 465.828L599.352 465.889L599.413 465.81L700.792 334.806L700.854 334.726L700.775 334.665L700.315 334.31Z" fill="#2E3134" stroke="black" stroke-width="0.2"/>
<path d="M667.668 537.366L667.731 537.432L667.803 537.374L668.31 536.968L668.395 536.899L668.319 536.82L599.534 465.287L599.471 465.221L599.4 465.278L598.893 465.685L598.807 465.753L598.883 465.832L667.668 537.366Z" fill="#2E3134" stroke="black" stroke-width="0.2"/>
<path d="M599.298 465.881L599.361 465.96L599.439 465.896L695.025 387.319L695.101 387.256L695.039 387.179L694.633 386.672L694.569 386.593L694.491 386.658L598.906 465.235L598.829 465.297L598.891 465.375L599.298 465.881Z" fill="#2E3134" stroke="black" stroke-width="0.2"/>
<path d="M599.519 465.595L599.61 465.575L599.597 465.483L585.317 366.146L585.302 366.04L585.197 366.062L584.487 366.215L584.395 366.235L584.409 366.327L598.831 465.634L598.846 465.74L598.951 465.717L599.519 465.595Z" fill="#2E3134" stroke="black" stroke-width="0.2"/>
<path d="M487.087 564.545L487.153 564.626L487.231 564.557L599.446 465.896L599.518 465.832L599.458 465.758L599.052 465.251L598.986 465.169L598.907 465.238L486.693 563.9L486.621 563.963L486.681 564.038L487.087 564.545Z" fill="#2E3134" stroke="black" stroke-width="0.2"/>
<path d="M469.166 450.37L469.067 450.359L469.056 450.458L468.99 451.036L468.979 451.135L469.078 451.146L599.16 465.954L599.26 465.965L599.271 465.866L599.337 465.288L599.348 465.189L599.249 465.178L469.166 450.37Z" fill="#2E3134" stroke="black" stroke-width="0.2"/>
<path d="M262.819 459.936L262.87 460L262.943 459.962L436.031 370.623L436.118 370.578L436.075 370.49L435.81 369.952L435.765 369.861L435.675 369.908L262.445 459.278L262.336 459.334L262.412 459.429L262.819 459.936Z" fill="#2E3134" stroke="black" stroke-width="0.2"/>
<path d="M394.852 639.272L394.914 639.356L394.995 639.291L395.502 638.884L395.577 638.824L395.52 638.747L263.05 459.352L262.989 459.268L262.907 459.333L262.401 459.74L262.326 459.8L262.383 459.877L394.852 639.272Z" fill="#2E3134" stroke="black" stroke-width="0.2"/>
<path d="M224.382 203.93L224.284 203.945L224.298 204.044L262.174 459.752L262.189 459.851L262.288 459.837L262.863 459.751L262.962 459.737L262.947 459.638L225.071 203.929L225.056 203.83L224.958 203.845L224.382 203.93Z" fill="#2E3134" stroke="black" stroke-width="0.2"/>
<path d="M262.988 459.787L263.072 459.825L263.117 459.744L336.026 328.382L336.072 328.3L335.993 328.249L335.475 327.915L335.385 327.857L335.333 327.951L262.282 459.343L262.23 459.438L262.328 459.483L262.988 459.787Z" fill="#2E3134" stroke="black" stroke-width="0.2"/>
<path d="M53.3888 432.97L53.2896 432.957L53.2772 433.057L53.205 433.633L53.1926 433.733L53.2918 433.745L262.645 459.948L262.744 459.961L262.757 459.861L262.829 459.285L262.841 459.186L262.742 459.173L53.3888 432.97Z" fill="#2E3134" stroke="black" stroke-width="0.2"/>
<path d="M262.357 459.884L262.419 459.964L262.499 459.901L263.006 459.494L263.082 459.433L263.022 459.355L197.631 374.604L197.569 374.523L197.489 374.587L196.983 374.993L196.906 375.055L196.966 375.133L262.357 459.884Z" fill="#2E3134" stroke="black" stroke-width="0.2"/>
<path d="M199.045 377.345L198.984 377.266L198.905 377.328L198.446 377.684L198.367 377.745L198.428 377.824L262.321 460.117L262.382 460.196L262.461 460.135L262.92 459.779L262.999 459.717L262.938 459.638L199.045 377.345Z" fill="#2E3134" stroke="black" stroke-width="0.2"/>
<path d="M199.045 377.345L198.984 377.266L198.905 377.328L198.446 377.684L198.367 377.745L198.428 377.824L262.321 460.117L262.382 460.196L262.461 460.135L262.92 459.779L262.999 459.717L262.938 459.638L199.045 377.345Z" fill="#2E3134" stroke="black" stroke-width="0.2"/>
<path d="M486.686 564.665L486.777 564.707L486.819 564.616L487.122 563.956L487.164 563.866L487.074 563.824L262.81 459.215L262.701 459.165L262.671 459.281L262.51 459.911L262.489 459.991L262.564 460.026L486.686 564.665Z" fill="#2E3134" stroke="black" stroke-width="0.2"/>
<path d="M300.398 559.719L300.429 559.799L300.513 559.781L301.081 559.659L301.195 559.634L301.153 559.525L263.064 459.375L263.024 459.273L262.926 459.321L262.388 459.586L262.307 459.626L262.339 459.711L300.398 559.719Z" fill="#2E3134" stroke="black" stroke-width="0.2"/>
<path d="M299.318 433.279L299.26 433.198L299.178 433.255L262.34 459.43L262.259 459.488L262.316 459.57L262.653 460.044L262.711 460.125L262.792 460.067L299.631 433.892L299.712 433.834L299.654 433.753L299.318 433.279Z" fill="#2E3134" stroke="black" stroke-width="0.2"/>
<path d="M469.132 451.189L469.251 451.184L469.226 451.068L469.073 450.357L469.055 450.275L468.97 450.279L262.648 459.231L262.529 459.237L262.554 459.352L262.677 459.921L262.694 460.003L262.779 459.999L469.132 451.189Z" fill="#2E3134" stroke="black" stroke-width="0.2"/>
<path d="M572.49 528.173L572.589 528.237L572.636 528.129L599.605 465.681L599.652 465.574L599.538 465.545L598.909 465.383L598.826 465.362L598.792 465.441L571.934 527.715L571.901 527.793L571.972 527.839L572.49 528.173Z" fill="#2E3134" stroke="black" stroke-width="0.2"/>
<path d="M571.867 528.285L571.942 528.372L572.018 528.285L572.494 527.737L572.551 527.671L572.494 527.606L436.104 370.014L436.041 369.942L435.966 370.002L435.459 370.408L435.378 370.473L435.446 370.552L571.867 528.285Z" fill="#2E3134" stroke="black" stroke-width="0.2"/>
<path d="M572.306 528.308L572.345 528.396L572.435 528.361L789.959 443.118L790.056 443.08L790.014 442.985L789.719 442.305L789.681 442.217L789.591 442.252L572.066 527.495L571.97 527.533L572.011 527.628L572.306 528.308Z" fill="#2E3134" stroke="black" stroke-width="0.2"/>
<path d="M572.478 528.174L572.561 528.228L572.615 528.146L701.002 334.879L701.058 334.795L700.973 334.74L700.455 334.406L700.372 334.352L700.318 334.434L571.931 527.701L571.874 527.785L571.96 527.84L572.478 528.174Z" fill="#2E3134" stroke="black" stroke-width="0.2"/>
<path d="M572.236 527.535L572.183 527.451L572.098 527.504L394.9 638.51L394.815 638.563L394.868 638.648L395.177 639.141L395.23 639.225L395.314 639.172L572.513 528.166L572.598 528.113L572.544 528.028L572.236 527.535Z" fill="#2E3134" stroke="black" stroke-width="0.2"/>
<path d="M572.276 527.646L572.176 527.637L572.167 527.736L572.111 528.315L572.101 528.414L572.201 528.424L667.951 537.651L668.05 537.66L668.06 537.561L668.116 536.982L668.125 536.883L668.026 536.873L572.276 527.646Z" fill="#2E3134" stroke="black" stroke-width="0.2"/>
<path d="M572.498 528.173L572.571 528.22L572.628 528.154L695.071 387.302L695.126 387.239L695.074 387.174L694.667 386.667L694.592 386.574L694.514 386.664L571.959 527.689L571.883 527.776L571.98 527.838L572.498 528.173Z" fill="#2E3134" stroke="black" stroke-width="0.2"/>
<path d="M584.718 366.147L584.618 366.139L584.61 366.239L571.958 527.906L571.951 528.005L572.05 528.013L572.63 528.058L572.729 528.066L572.737 527.967L585.389 366.3L585.397 366.2L585.297 366.192L584.718 366.147Z" fill="#2E3134" stroke="black" stroke-width="0.2"/>
<path d="M486.93 564.556L486.972 564.641L487.059 564.604L572.446 528.359L572.539 528.32L572.499 528.227L572.204 527.548L572.164 527.457L572.073 527.496L486.716 563.882L486.619 563.924L486.666 564.019L486.93 564.556Z" fill="#2E3134" stroke="black" stroke-width="0.2"/>
<path d="M469.283 450.633L469.203 450.574L469.143 450.654L468.794 451.119L468.735 451.199L468.815 451.259L572.013 528.473L572.093 528.532L572.153 528.452L572.501 527.987L572.561 527.907L572.481 527.847L469.283 450.633Z" fill="#2E3134" stroke="black" stroke-width="0.2"/>
<path d="M570.079 597.543L570.174 597.541L570.177 597.446L572.73 527.925L572.734 527.82L572.629 527.822L571.888 527.833L571.793 527.834L571.79 527.929L569.237 597.45L569.233 597.555L569.338 597.554L570.079 597.543Z" fill="#2E3134" stroke="black" stroke-width="0.2"/>
<path d="M570.077 597.534L570.177 597.56L570.2 597.459L599.611 465.663L599.632 465.569L599.538 465.545L598.909 465.383L598.809 465.358L598.786 465.458L569.375 597.254L569.354 597.348L569.448 597.373L570.077 597.534Z" fill="#2E3134" stroke="black" stroke-width="0.2"/>
<path d="M569.137 598.568L569.114 598.47L569.016 598.494L394.348 639.82L394.25 639.843L394.273 639.94L394.407 640.506L394.43 640.603L394.527 640.58L569.196 599.254L569.293 599.231L569.27 599.133L569.137 598.568Z" fill="#2E3134" stroke="black" stroke-width="0.2"/>
<path d="M569.735 597.691L569.784 597.79L569.877 597.732L668.216 537.439L668.312 537.38L668.241 537.292L667.835 536.785L667.78 536.716L667.704 536.762L569.508 597.024L569.431 597.072L569.471 597.154L569.735 597.691Z" fill="#2E3134" stroke="black" stroke-width="0.2"/>
<path d="M569.933 597.693L570.021 597.749L570.074 597.66L695.212 387.257L695.269 387.161L695.168 387.115L694.508 386.811L694.426 386.774L694.38 386.851L569.384 597.224L569.334 597.307L569.415 597.359L569.933 597.693Z" fill="#2E3134" stroke="black" stroke-width="0.2"/>
<path d="M570.082 597.542L570.174 597.54L570.18 597.448L585.311 366.316L585.317 366.233L585.236 366.212L584.607 366.051L584.49 366.021L584.482 366.141L569.24 597.446L569.233 597.555L569.341 597.553L570.082 597.542Z" fill="#2E3134" stroke="black" stroke-width="0.2"/>
<path d="M569.533 597.794L569.61 597.824L569.654 597.755L569.989 597.237L570.054 597.135L569.942 597.09L487.107 563.814L487.019 563.778L486.979 563.865L486.676 564.525L486.632 564.62L486.729 564.659L569.533 597.794Z" fill="#2E3134" stroke="black" stroke-width="0.2"/>
<path d="M569.415 597.624L569.464 597.696L569.541 597.658L570.079 597.393L570.183 597.342L570.117 597.247L469.373 450.552L469.324 450.48L469.246 450.518L468.709 450.783L468.605 450.834L468.67 450.929L569.415 597.624Z" fill="#2E3134" stroke="black" stroke-width="0.2"/>
<path d="M572.28 527.684L572.181 527.675L572.172 527.775L572.119 528.353L572.11 528.453L572.209 528.462L830.067 552.084L830.167 552.094L830.176 551.994L830.229 551.415L830.238 551.316L830.139 551.307L572.28 527.684Z" fill="#2E3134" stroke="black" stroke-width="0.2"/>
<path d="M829.86 551.931L829.947 551.963L829.986 551.879L830.29 551.219L830.335 551.121L830.234 551.083L599.295 465.157L599.191 465.118L599.163 465.226L599.002 465.855L598.979 465.942L599.064 465.974L829.86 551.931Z" fill="#2E3134" stroke="black" stroke-width="0.2"/>
<path d="M826.888 315.496L826.788 315.497L826.789 315.597L829.778 551.7L829.78 551.8L829.88 551.798L830.461 551.791L830.561 551.79L830.56 551.69L827.571 315.587L827.569 315.487L827.469 315.488L826.888 315.496Z" fill="#2E3134" stroke="black" stroke-width="0.2"/>
<path d="M829.78 551.728L829.819 551.832L829.918 551.783L830.456 551.519L830.537 551.479L830.506 551.394L790.233 442.499L790.197 442.4L790.1 442.442L789.42 442.737L789.333 442.775L789.366 442.863L829.78 551.728Z" fill="#2E3134" stroke="black" stroke-width="0.2"/>
<path d="M830.43 551.665L830.531 551.691L830.553 551.589L869.796 368.176L869.816 368.082L869.723 368.058L869.093 367.897L868.992 367.871L868.971 367.973L829.728 551.386L829.708 551.48L829.801 551.504L830.43 551.665Z" fill="#2E3134" stroke="black" stroke-width="0.2"/>
<path d="M829.789 551.743L829.836 551.822L829.919 551.782L830.457 551.517L830.554 551.469L830.498 551.376L700.947 334.489L700.899 334.409L700.817 334.45L700.279 334.715L700.182 334.763L700.237 334.856L829.789 551.743Z" fill="#2E3134" stroke="black" stroke-width="0.2"/>
<path d="M830.029 551.907L830.134 551.916L830.138 551.81L830.157 551.212L830.16 551.117L830.066 551.109L668.054 536.685L667.97 536.678L667.948 536.76L667.787 537.389L667.758 537.503L667.875 537.514L830.029 551.907Z" fill="#2E3134" stroke="black" stroke-width="0.2"/>
<path d="M829.759 551.763L829.821 551.839L829.899 551.777L830.405 551.371L830.484 551.307L830.42 551.229L695.067 386.725L695.004 386.649L694.927 386.711L694.42 387.118L694.341 387.181L694.405 387.259L829.759 551.763Z" fill="#2E3134" stroke="black" stroke-width="0.2"/>
<path d="M830.228 551.811L830.292 551.891L830.371 551.825L965.33 438.004L965.415 437.932L965.336 437.855L964.96 437.49L964.895 437.427L964.826 437.486L829.835 551.165L829.76 551.228L829.822 551.304L830.228 551.811Z" fill="#2E3134" stroke="black" stroke-width="0.2"/>
<path d="M964.788 438.09L964.875 438.167L964.938 438.069L965.272 437.551L965.319 437.479L965.255 437.422L827.254 315.11L827.166 315.033L827.103 315.13L826.769 315.648L826.723 315.721L826.787 315.777L964.788 438.09Z" fill="#2E3134" stroke="black" stroke-width="0.2"/>
<path d="M965.024 438.227L965.123 438.225L965.121 438.126L965.11 437.385L965.109 437.284L965.008 437.287L789.775 442.212L789.677 442.215L789.678 442.314L789.689 443.055L789.691 443.156L789.792 443.153L965.024 438.227Z" fill="#2E3134" stroke="black" stroke-width="0.2"/>
<path d="M964.824 438.09L964.91 438.152L964.967 438.063L965.301 437.545L965.352 437.466L965.276 437.41L869.701 367.787L869.627 367.733L869.566 367.802L869.09 368.351L869.019 368.433L869.107 368.497L964.824 438.09Z" fill="#2E3134" stroke="black" stroke-width="0.2"/>
<path d="M830.228 551.811L830.292 551.891L830.371 551.825L965.33 438.004L965.415 437.932L965.336 437.855L964.96 437.49L964.895 437.427L964.826 437.486L829.835 551.165L829.76 551.228L829.822 551.304L830.228 551.811Z" fill="#2E3134" stroke="black" stroke-width="0.2"/>
<path d="M964.788 438.09L964.875 438.167L964.938 438.069L965.272 437.551L965.319 437.479L965.255 437.422L827.254 315.11L827.166 315.033L827.103 315.13L826.769 315.648L826.723 315.721L826.787 315.777L964.788 438.09Z" fill="#2E3134" stroke="black" stroke-width="0.2"/>
<path d="M965.024 438.227L965.123 438.225L965.121 438.126L965.11 437.385L965.109 437.284L965.008 437.287L789.775 442.212L789.677 442.215L789.678 442.314L789.689 443.055L789.691 443.156L789.792 443.153L965.024 438.227Z" fill="#2E3134" stroke="black" stroke-width="0.2"/>
<path d="M964.824 438.09L964.91 438.152L964.967 438.063L965.301 437.545L965.352 437.466L965.276 437.41L869.701 367.787L869.627 367.733L869.566 367.802L869.09 368.351L869.019 368.433L869.107 368.497L964.824 438.09Z" fill="#2E3134" stroke="black" stroke-width="0.2"/>
</g>
<g style="mix-blend-mode:overlay">
<path d="M468.969 451.22L469.062 451.23L469.078 451.138L469.209 450.366L469.227 450.261L469.12 450.25L299.656 432.974L299.549 432.963L299.546 433.07L299.526 433.669L299.523 433.762L299.616 433.771L468.969 451.22Z" fill="#2E3134" stroke="black" stroke-width="0.2"/>
<path d="M301.053 559.662L301.157 559.666L301.156 559.562L299.986 433.467L299.985 433.371L299.889 433.368L299.29 433.348L299.186 433.345L299.187 433.449L300.357 559.544L300.358 559.64L300.454 559.643L301.053 559.662Z" fill="#2E3134" stroke="black" stroke-width="0.2"/>
<path d="M300.86 559.946L300.917 560.017L300.993 559.968L469.287 451.149L469.373 451.094L469.316 451.009L468.879 450.36L468.824 450.279L468.741 450.332L300.478 559.293L300.385 559.353L300.454 559.44L300.86 559.946Z" fill="#2E3134" stroke="black" stroke-width="0.2"/>
<path d="M486.881 564.64L486.98 564.642L486.984 564.543L487.003 563.944L487.006 563.844L486.906 563.841L300.843 559.21L300.744 559.208L300.741 559.307L300.721 559.906L300.718 560.007L300.819 560.009L486.881 564.64Z" fill="#2E3134" stroke="black" stroke-width="0.2"/>
<path d="M486.661 564.657L486.746 564.717L486.802 564.63L487.136 564.112L487.188 564.031L487.11 563.975L299.846 433.108L299.761 433.048L299.705 433.135L299.371 433.653L299.318 433.734L299.397 433.79L486.661 564.657Z" fill="#2E3134" stroke="black" stroke-width="0.2"/>
<path d="M487.265 564.263L487.358 564.243L487.343 564.15L469.433 450.731L469.42 450.649L469.337 450.646L468.739 450.627L468.618 450.623L468.636 450.742L486.435 564.334L486.452 564.438L486.555 564.416L487.265 564.263Z" fill="#2E3134" stroke="black" stroke-width="0.2"/>
<path d="M300.451 559.872L300.508 559.975L300.601 559.901L301.107 559.495L301.173 559.442L301.132 559.368L199.258 377.093L199.205 376.998L199.115 377.059L198.466 377.496L198.389 377.548L198.434 377.628L300.451 559.872Z" fill="#2E3134" stroke="black" stroke-width="0.2"/>
<path d="M299.424 433.792L299.506 433.837L299.557 433.759L299.891 433.241L299.949 433.151L299.856 433.099L199.009 376.95L198.915 376.897L198.87 376.995L198.566 377.656L198.528 377.74L198.609 377.785L299.424 433.792Z" fill="#2E3134" stroke="black" stroke-width="0.2"/>
<path d="M300.451 559.872L300.508 559.975L300.601 559.901L301.107 559.495L301.173 559.442L301.132 559.368L199.258 377.093L199.205 376.998L199.115 377.059L198.466 377.496L198.389 377.548L198.434 377.628L300.451 559.872Z" fill="#2E3134" stroke="black" stroke-width="0.2"/>
<path d="M299.424 433.792L299.506 433.837L299.557 433.759L299.891 433.241L299.949 433.151L299.856 433.099L199.009 376.95L198.915 376.897L198.87 376.995L198.566 377.656L198.528 377.74L198.609 377.785L299.424 433.792Z" fill="#2E3134" stroke="black" stroke-width="0.2"/>
<path d="M197.61 374.62L197.557 374.536L197.472 374.589L196.981 374.9L196.897 374.954L196.95 375.038L198.505 377.493L198.559 377.578L198.643 377.524L199.134 377.213L199.219 377.16L199.165 377.075L197.61 374.62Z" fill="#2E3134" stroke="black" stroke-width="0.2"/>
<path d="M197.61 374.62L197.557 374.536L197.472 374.589L196.981 374.9L196.897 374.954L196.95 375.038L198.505 377.493L198.559 377.578L198.643 377.524L199.134 377.213L199.219 377.16L199.165 377.075L197.61 374.62Z" fill="#2E3134" stroke="black" stroke-width="0.2"/>
<path d="M300.409 559.88L300.467 559.983L300.559 559.909L301.066 559.503L301.132 559.45L301.09 559.376L197.671 374.759L197.624 374.676L197.539 374.718L197.002 374.982L196.907 375.029L196.959 375.121L300.409 559.88Z" fill="#2E3134" stroke="black" stroke-width="0.2"/>
<path d="M197.439 374.427L197.352 374.378L197.303 374.465L197.014 374.969L196.965 375.056L197.051 375.106L299.349 433.607L299.436 433.656L299.485 433.57L299.774 433.065L299.824 432.978L299.737 432.929L197.439 374.427Z" fill="#2E3134" stroke="black" stroke-width="0.2"/>
<path d="M197.302 375.192L197.341 375.27L197.424 375.242L335.866 328.6L335.969 328.566L335.926 328.466L335.631 327.786L335.594 327.702L335.507 327.731L197.095 374.515L196.987 374.552L197.037 374.654L197.302 375.192Z" fill="#2E3134" stroke="black" stroke-width="0.2"/>
<path d="M335.896 327.87L335.862 327.776L335.768 327.809L198.79 376.734L198.696 376.768L198.73 376.862L198.925 377.409L198.959 377.503L199.053 377.47L336.031 328.545L336.125 328.511L336.091 328.417L335.896 327.87Z" fill="#2E3134" stroke="black" stroke-width="0.2"/>
<path d="M335.896 327.87L335.862 327.776L335.768 327.809L198.79 376.734L198.696 376.768L198.73 376.862L198.925 377.409L198.959 377.503L199.053 377.47L336.031 328.545L336.125 328.511L336.091 328.417L335.896 327.87Z" fill="#2E3134" stroke="black" stroke-width="0.2"/>
<path d="M301.055 559.803L301.163 559.83L301.179 559.721L336.171 328.32L336.185 328.23L336.097 328.208L335.468 328.046L335.361 328.019L335.344 328.128L300.352 559.529L300.339 559.618L300.426 559.641L301.055 559.803Z" fill="#2E3134" stroke="black" stroke-width="0.2"/>
<path d="M299.87 433.702L299.97 433.748L300.006 433.644L336.168 328.338L336.204 328.235L336.099 328.208L335.469 328.047L335.38 328.024L335.35 328.111L299.157 433.275L299.128 433.361L299.21 433.398L299.87 433.702Z" fill="#2E3134" stroke="black" stroke-width="0.2"/>
<path d="M335.976 328.129L335.902 328.061L335.835 328.135L335.442 328.563L335.374 328.636L335.447 328.704L468.753 451.216L468.827 451.284L468.894 451.21L469.288 450.783L469.355 450.709L469.282 450.641L335.976 328.129Z" fill="#2E3134" stroke="black" stroke-width="0.2"/>
<path d="M584.79 366.644L584.879 366.658L584.902 366.57L585.063 365.941L585.091 365.834L584.981 365.817L335.692 327.845L335.58 327.828L335.577 327.941L335.557 328.54L335.554 328.628L335.642 328.642L584.79 366.644Z" fill="#2E3134" stroke="black" stroke-width="0.2"/>
<path d="M487.133 564.558L487.227 564.619L487.277 564.519L585.181 366.378L585.229 366.281L585.128 366.241L584.641 366.048L584.555 366.015L584.515 366.097L486.58 564.096L486.54 564.176L486.615 564.224L487.133 564.558Z" fill="#2E3134" stroke="black" stroke-width="0.2"/>
<path d="M469.192 451.114L469.25 451.2L469.334 451.139L585.179 366.559L585.264 366.497L585.198 366.416L584.792 365.909L584.732 365.834L584.655 365.891L468.779 450.328L468.701 450.385L468.755 450.465L469.192 451.114Z" fill="#2E3134" stroke="black" stroke-width="0.2"/>
<path d="M335.462 328.489L335.525 328.559L335.599 328.5L336.106 328.093L336.188 328.027L336.118 327.949L224.877 203.583L224.801 203.499L224.727 203.585L224.25 204.133L224.192 204.2L224.251 204.265L335.462 328.489Z" fill="#2E3134" stroke="black" stroke-width="0.2"/>
<path d="M225.099 203.817L225 203.8L224.983 203.899L195.995 374.66L195.978 374.759L196.077 374.776L196.649 374.873L196.748 374.89L196.765 374.791L225.754 204.03L225.77 203.931L225.672 203.914L225.099 203.817Z" fill="#2E3134" stroke="black" stroke-width="0.2"/>
<path d="M199.179 377.529L199.287 377.557L199.303 377.447L224.928 203.955L224.944 203.844L224.832 203.841L224.234 203.821L224.144 203.818L224.131 203.906L198.476 377.256L198.463 377.345L198.55 377.367L199.179 377.529Z" fill="#2E3134" stroke="black" stroke-width="0.2"/>
<path d="M199.179 377.529L199.287 377.557L199.303 377.447L224.928 203.955L224.944 203.844L224.832 203.841L224.234 203.821L224.144 203.818L224.131 203.906L198.476 377.256L198.463 377.345L198.55 377.367L199.179 377.529Z" fill="#2E3134" stroke="black" stroke-width="0.2"/>
<path d="M299.241 433.618L299.277 433.727L299.381 433.676L299.918 433.412L299.996 433.373L299.969 433.291L224.921 203.762L224.885 203.652L224.781 203.703L224.244 203.968L224.166 204.006L224.193 204.088L299.241 433.618Z" fill="#2E3134" stroke="black" stroke-width="0.2"/>
<path d="M224.613 204.378L224.731 204.398L224.73 204.278L224.719 203.537L224.717 203.454L224.635 203.44L57.2885 175.302L57.1979 175.287L57.175 175.376L57.0134 176.005L56.9864 176.111L57.0936 176.129L224.613 204.378Z" fill="#2E3134" stroke="black" stroke-width="0.2"/>
<path d="M53.5403 433.458L53.642 433.462L53.6436 433.36L57.5786 175.804L57.5801 175.706L57.4819 175.702L56.8831 175.683L56.7814 175.68L56.7799 175.781L52.8448 433.337L52.8433 433.436L52.9415 433.439L53.5403 433.458Z" fill="#2E3134" stroke="black" stroke-width="0.2"/>
<path d="M196.98 375.126L197.041 375.213L197.124 375.147L197.631 374.74L197.705 374.681L197.651 374.605L57.5049 175.46L57.4437 175.373L57.3606 175.439L56.8537 175.846L56.7804 175.904L56.8344 175.981L196.98 375.126Z" fill="#2E3134" stroke="black" stroke-width="0.2"/>
<path d="M198.556 377.611L198.617 377.698L198.701 377.631L199.207 377.225L199.281 377.166L199.227 377.089L57.505 175.46L57.4437 175.372L57.3606 175.439L56.8537 175.846L56.7804 175.904L56.8344 175.981L198.556 377.611Z" fill="#2E3134" stroke="black" stroke-width="0.2"/>
<path d="M198.556 377.611L198.617 377.698L198.701 377.631L199.207 377.225L199.281 377.166L199.227 377.089L57.505 175.46L57.4437 175.372L57.3606 175.439L56.8537 175.846L56.7804 175.904L56.8344 175.981L198.556 377.611Z" fill="#2E3134" stroke="black" stroke-width="0.2"/>
<path d="M224.627 203.516L224.528 203.504L224.517 203.604L224.451 204.181L224.44 204.281L224.539 204.292L450.77 230.085L450.87 230.096L450.881 229.997L450.947 229.419L450.958 229.32L450.859 229.308L224.627 203.516Z" fill="#2E3134" stroke="black" stroke-width="0.2"/>
<path d="M584.574 366.502L584.637 366.567L584.708 366.51L585.215 366.104L585.301 366.034L585.224 365.955L451.143 229.42L451.08 229.355L451.009 229.412L450.502 229.818L450.416 229.888L450.493 229.967L584.574 366.502Z" fill="#2E3134" stroke="black" stroke-width="0.2"/>
<path d="M335.868 328.542L335.932 328.623L336.011 328.556L451.078 230.023L451.151 229.96L451.091 229.884L450.684 229.377L450.619 229.297L450.541 229.364L335.474 327.897L335.401 327.96L335.461 328.035L335.868 328.542Z" fill="#2E3134" stroke="black" stroke-width="0.2"/>
<path d="M299.829 433.699L299.908 433.75L299.964 433.675L451.223 229.978L451.287 229.892L451.197 229.834L450.679 229.5L450.601 229.449L450.545 229.524L299.285 433.222L299.222 433.307L299.311 433.365L299.829 433.699Z" fill="#2E3134" stroke="black" stroke-width="0.2"/>
<path d="M469.323 450.849L469.435 450.853L469.426 450.741L451.363 229.737L451.356 229.644L451.262 229.645L450.521 229.657L450.414 229.658L450.423 229.765L468.628 450.738L468.635 450.827L468.725 450.83L469.323 450.849Z" fill="#2E3134" stroke="black" stroke-width="0.2"/>
<path d="M694.68 387.399L694.772 387.417L694.795 387.326L694.957 386.696L694.983 386.593L694.878 386.573L585.013 365.813L584.921 365.796L584.898 365.887L584.736 366.516L584.71 366.619L584.814 366.639L694.68 387.399Z" fill="#2E3134" stroke="black" stroke-width="0.2"/>
<path d="M468.995 451.117L469.018 451.221L469.12 451.192L694.831 387.372L694.921 387.346L694.901 387.255L694.779 386.687L694.756 386.582L694.654 386.611L468.913 450.289L468.822 450.315L468.842 450.406L468.995 451.117Z" fill="#2E3134" stroke="black" stroke-width="0.2"/>
<path d="M668.283 537.27L668.387 537.297L668.406 537.191L695.206 387.08L695.223 386.989L695.133 386.965L694.503 386.804L694.399 386.777L694.38 386.883L667.58 536.994L667.563 537.085L667.653 537.108L668.283 537.27Z" fill="#2E3134" stroke="black" stroke-width="0.2"/>
<path d="M667.606 537.349L667.65 537.439L667.74 537.395L668.277 537.13L668.367 537.087L668.323 536.997L585.228 365.984L585.173 365.872L585.075 365.95L584.568 366.357L584.506 366.407L584.541 366.478L667.606 537.349Z" fill="#2E3134" stroke="black" stroke-width="0.2"/>
<path d="M486.961 563.904L486.862 563.919L486.877 564.017L486.963 564.592L486.978 564.691L487.077 564.676L668.146 537.565L668.245 537.55L668.23 537.451L668.144 536.877L668.129 536.778L668.031 536.792L486.961 563.904Z" fill="#2E3134" stroke="black" stroke-width="0.2"/>
<path d="M469.099 450.269L469.007 450.229L468.967 450.321L468.736 450.854L468.696 450.946L468.788 450.986L667.644 537.344L667.735 537.383L667.775 537.292L668.007 536.759L668.047 536.667L667.955 536.627L469.099 450.269Z" fill="#2E3134" stroke="black" stroke-width="0.2"/>
<path d="M395.305 639.343L395.368 639.398L395.433 639.345L487.228 564.558L487.305 564.495L487.243 564.418L486.836 563.911L486.773 563.832L486.695 563.896L394.758 638.713L394.666 638.789L394.756 638.867L395.305 639.343Z" fill="#2E3134" stroke="black" stroke-width="0.2"/>
<path d="M300.942 559.256L300.866 559.192L300.801 559.268L300.427 559.713L300.363 559.79L300.439 559.854L394.701 639.213L394.777 639.277L394.842 639.201L395.216 638.756L395.28 638.68L395.204 638.615L300.942 559.256Z" fill="#2E3134" stroke="black" stroke-width="0.2"/>
<path d="M299.777 433.368L299.735 433.278L299.645 433.32L299.118 433.565L299.027 433.607L299.069 433.698L394.564 639.277L394.607 639.368L394.697 639.326L395.224 639.081L395.315 639.039L395.273 638.948L299.777 433.368Z" fill="#2E3134" stroke="black" stroke-width="0.2"/>
<path d="M395.299 639.219L395.392 639.255L395.429 639.162L469.455 450.926L469.49 450.838L469.404 450.798L468.744 450.495L468.648 450.451L468.609 450.549L394.755 638.897L394.719 638.99L394.812 639.027L395.299 639.219Z" fill="#2E3134" stroke="black" stroke-width="0.2"/>
<path d="M668.307 537.273L668.395 537.276L668.409 537.189L701.011 334.694L701.025 334.604L700.937 334.582L700.307 334.42L700.201 334.393L700.184 334.501L667.612 537.138L667.594 537.25L667.708 537.254L668.307 537.273Z" fill="#2E3134" stroke="black" stroke-width="0.2"/>
<path d="M695.054 387.174L695.147 387.177L695.157 387.085L700.959 334.701L700.97 334.594L700.862 334.59L700.264 334.57L700.171 334.567L700.161 334.659L694.36 387.043L694.348 387.151L694.456 387.154L695.054 387.174Z" fill="#2E3134" stroke="black" stroke-width="0.2"/>
<path d="M584.89 366.527L584.913 366.631L585.015 366.603L700.823 334.948L700.94 334.916L700.887 334.807L700.622 334.27L700.586 334.196L700.506 334.217L584.839 365.842L584.748 365.867L584.768 365.959L584.89 366.527Z" fill="#2E3134" stroke="black" stroke-width="0.2"/>
<path d="M869.249 368.495L869.341 368.514L869.365 368.422L869.526 367.793L869.553 367.69L869.449 367.67L700.655 334.195L700.562 334.177L700.538 334.269L700.377 334.898L700.35 335L700.454 335.021L869.249 368.495Z" fill="#2E3134" stroke="black" stroke-width="0.2"/>
<path d="M869.49 368.597L869.6 368.586L869.577 368.477L869.424 367.767L869.405 367.679L869.315 367.688L694.719 386.598L694.609 386.61L694.632 386.719L694.755 387.287L694.774 387.375L694.863 387.365L869.49 368.597Z" fill="#2E3134" stroke="black" stroke-width="0.2"/>
<path d="M869.174 367.564L869.106 367.491L869.033 367.56L789.595 442.38L789.522 442.448L789.591 442.521L789.989 442.944L790.058 443.017L790.131 442.948L869.569 368.129L869.642 368.06L869.573 367.987L869.174 367.564Z" fill="#2E3134" stroke="black" stroke-width="0.2"/>
<path d="M700.9 334.633L700.836 334.556L700.759 334.62L700.311 334.99L700.234 335.053L700.297 335.13L789.445 443.175L789.508 443.253L789.586 443.189L790.034 442.819L790.111 442.755L790.047 442.678L700.9 334.633Z" fill="#2E3134" stroke="black" stroke-width="0.2"/>
<path d="M668.086 537.415L668.148 537.491L668.226 537.431L790.107 442.929L790.203 442.854L790.111 442.774L789.563 442.298L789.501 442.244L789.436 442.294L667.696 536.766L667.616 536.828L667.68 536.908L668.086 537.415Z" fill="#2E3134" stroke="black" stroke-width="0.2"/>
<path d="M789.57 443.027L789.652 443.075L789.704 442.994L790.038 442.476L790.095 442.389L790.005 442.336L695.066 386.697L694.983 386.649L694.931 386.729L694.597 387.247L694.541 387.335L694.631 387.388L789.57 443.027Z" fill="#2E3134" stroke="black" stroke-width="0.2"/>
<path d="M789.602 443.033L789.689 443.066L789.728 442.982L790.032 442.322L790.077 442.224L789.976 442.186L585.029 365.818L584.925 365.779L584.898 365.887L584.736 366.516L584.714 366.603L584.798 366.635L789.602 443.033Z" fill="#2E3134" stroke="black" stroke-width="0.2"/>
<path d="M700.473 335.002L700.566 335.05L700.61 334.955L700.913 334.295L700.953 334.208L700.868 334.165L480.937 220.001L480.843 219.953L480.8 220.048L480.496 220.708L480.456 220.795L480.541 220.839L700.473 335.002Z" fill="#2E3134" stroke="black" stroke-width="0.2"/>
<path d="M450.924 229.994L450.962 230.07L451.043 230.045L480.717 220.824L480.805 220.797L480.785 220.707L480.663 220.139L480.64 220.032L480.535 220.065L450.72 229.316L450.608 229.351L450.66 229.456L450.924 229.994Z" fill="#2E3134" stroke="black" stroke-width="0.2"/>
<path d="M224.461 203.477L224.361 203.47L224.355 203.57L224.318 204.15L224.311 204.25L224.411 204.256L480.494 220.746L480.594 220.752L480.6 220.652L480.637 220.072L480.644 219.973L480.544 219.966L224.461 203.477Z" fill="#2E3134" stroke="black" stroke-width="0.2"/>
<path d="M584.573 366.488L584.634 366.574L584.716 366.508L585.223 366.102L585.297 366.042L585.242 365.966L480.977 220.178L480.916 220.092L480.833 220.158L480.326 220.565L480.252 220.624L480.308 220.701L584.573 366.488Z" fill="#2E3134" stroke="black" stroke-width="0.2"/>
<path d="M480.132 219.567L480.072 219.487L479.992 219.547L335.717 328.208L335.637 328.268L335.697 328.348L336.047 328.812L336.107 328.892L336.187 328.832L480.462 220.171L480.542 220.111L480.482 220.031L480.132 219.567Z" fill="#2E3134" stroke="black" stroke-width="0.2"/>
<path d="M469.322 450.85L469.421 450.853L469.426 450.755L481.036 220.53L481.04 220.449L480.961 220.428L480.332 220.267L480.213 220.236L480.207 220.359L468.627 450.726L468.622 450.827L468.724 450.831L469.322 450.85Z" fill="#2E3134" stroke="black" stroke-width="0.2"/>
<path d="M700.473 335.002L700.566 335.05L700.61 334.955L700.913 334.295L700.953 334.208L700.868 334.165L480.937 220.001L480.843 219.953L480.8 220.048L480.496 220.708L480.456 220.795L480.541 220.839L700.473 335.002Z" fill="#2E3134" stroke="black" stroke-width="0.2"/>
<path d="M450.924 229.994L450.962 230.07L451.043 230.045L480.717 220.824L480.805 220.797L480.785 220.707L480.663 220.139L480.64 220.032L480.535 220.065L450.72 229.316L450.608 229.351L450.66 229.456L450.924 229.994Z" fill="#2E3134" stroke="black" stroke-width="0.2"/>
<path d="M224.461 203.477L224.361 203.47L224.355 203.57L224.318 204.15L224.311 204.25L224.411 204.256L480.494 220.746L480.594 220.752L480.6 220.652L480.637 220.072L480.644 219.973L480.544 219.966L224.461 203.477Z" fill="#2E3134" stroke="black" stroke-width="0.2"/>
<path d="M584.573 366.488L584.634 366.574L584.716 366.508L585.223 366.102L585.297 366.042L585.242 365.966L480.977 220.178L480.916 220.092L480.833 220.158L480.326 220.565L480.252 220.624L480.308 220.701L584.573 366.488Z" fill="#2E3134" stroke="black" stroke-width="0.2"/>
<path d="M480.132 219.567L480.072 219.487L479.992 219.547L335.717 328.208L335.637 328.268L335.697 328.348L336.047 328.812L336.107 328.892L336.187 328.832L480.462 220.171L480.542 220.111L480.482 220.031L480.132 219.567Z" fill="#2E3134" stroke="black" stroke-width="0.2"/>
<path d="M469.322 450.85L469.421 450.853L469.426 450.755L481.036 220.53L481.04 220.449L480.961 220.428L480.332 220.267L480.213 220.236L480.207 220.359L468.627 450.726L468.622 450.827L468.724 450.831L469.322 450.85Z" fill="#2E3134" stroke="black" stroke-width="0.2"/>
<path d="M790.008 442.793L790.11 442.833L790.141 442.728L827.372 315.49L827.398 315.402L827.313 315.369L826.826 315.176L826.724 315.136L826.693 315.241L789.462 442.48L789.436 442.567L789.521 442.601L790.008 442.793Z" fill="#2E3134" stroke="black" stroke-width="0.2"/>
<path d="M869.028 368.344L869.091 368.422L869.169 368.359L869.676 367.952L869.754 367.89L869.691 367.812L827.265 315.122L827.194 315.034L827.116 315.115L826.751 315.491L826.689 315.554L826.744 315.623L869.028 368.344Z" fill="#2E3134" stroke="black" stroke-width="0.2"/>
<path d="M827.052 315.912L827.138 315.899L827.137 315.812L827.126 315.071L827.124 314.956L827.011 314.974L700.642 334.189L700.56 334.202L700.557 334.285L700.538 334.883L700.534 335.004L700.653 334.986L827.052 315.912Z" fill="#2E3134" stroke="black" stroke-width="0.2"/>
<path d="M694.896 387.303L694.948 387.368L695.021 387.328L827.222 315.871L827.303 315.827L827.266 315.743L826.971 315.064L826.928 314.964L826.832 315.015L694.52 386.646L694.414 386.703L694.489 386.796L694.896 387.303Z" fill="#2E3134" stroke="black" stroke-width="0.2"/>
<path d="M827.08 315.905L827.16 315.888L827.159 315.806L827.148 315.065L827.146 314.944L827.028 314.969L584.85 365.839L584.752 365.86L584.773 365.958L584.895 366.526L584.916 366.623L585.014 366.603L827.08 315.905Z" fill="#2E3134" stroke="black" stroke-width="0.2"/>
<path d="M480.495 220.479L480.399 220.45L480.37 220.546L435.544 370.483L435.516 370.579L435.611 370.608L436.168 370.774L436.264 370.803L436.293 370.707L481.119 220.77L481.148 220.674L481.052 220.645L480.495 220.479Z" fill="#2E3134" stroke="black" stroke-width="0.2"/>
<path d="M480.495 220.479L480.399 220.45L480.37 220.546L435.544 370.483L435.516 370.579L435.611 370.608L436.168 370.774L436.264 370.803L436.293 370.707L481.119 220.77L481.148 220.674L481.052 220.645L480.495 220.479Z" fill="#2E3134" stroke="black" stroke-width="0.2"/>
<path d="M436.063 370.46L436.175 370.489L436.187 370.374L451.217 229.787L451.228 229.68L451.12 229.677L450.522 229.657L450.429 229.654L450.419 229.747L435.359 370.191L435.35 370.277L435.433 370.299L436.063 370.46Z" fill="#2E3134" stroke="black" stroke-width="0.2"/>
<path d="M584.855 366.635L584.949 366.633L584.952 366.538L584.972 365.94L584.975 365.834L584.869 365.836L435.901 369.857L435.806 369.86L435.803 369.954L435.784 370.552L435.78 370.659L435.886 370.656L584.855 366.635Z" fill="#2E3134" stroke="black" stroke-width="0.2"/>
<path d="M435.684 370.682L435.791 370.727L435.82 370.615L435.982 369.985L436.003 369.902L435.923 369.868L335.886 327.814L335.797 327.777L335.757 327.865L335.453 328.525L335.41 328.619L335.505 328.659L435.684 370.682Z" fill="#2E3134" stroke="black" stroke-width="0.2"/>
<path d="M435.878 370.659L435.973 370.657L435.976 370.562L435.996 369.964L435.999 369.858L435.894 369.86L197.272 374.479L197.178 374.481L197.174 374.576L197.155 375.175L197.151 375.28L197.257 375.278L435.878 370.659Z" fill="#2E3134" stroke="black" stroke-width="0.2"/>
<path d="M435.874 370.659L435.967 370.656L435.97 370.562L435.99 369.963L435.994 369.857L435.887 369.86L198.842 376.963L198.748 376.966L198.745 377.06L198.725 377.659L198.722 377.765L198.828 377.762L435.874 370.659Z" fill="#2E3134" stroke="black" stroke-width="0.2"/>
<path d="M435.874 370.659L435.967 370.656L435.97 370.562L435.99 369.963L435.994 369.857L435.887 369.86L198.842 376.963L198.748 376.966L198.745 377.06L198.725 377.659L198.722 377.765L198.828 377.762L435.874 370.659Z" fill="#2E3134" stroke="black" stroke-width="0.2"/>
<path d="M436.256 370.124L436.23 370.027L436.134 370.052L435.572 370.2L435.475 370.226L435.5 370.323L486.572 564.231L486.598 564.328L486.695 564.302L487.257 564.154L487.353 564.129L487.328 564.032L436.256 370.124Z" fill="#2E3134" stroke="black" stroke-width="0.2"/>
<path d="M435.556 369.731L435.474 369.674L435.416 369.755L300.59 559.159L300.532 559.241L300.613 559.299L301.087 559.636L301.168 559.694L301.226 559.612L436.052 370.208L436.11 370.126L436.029 370.068L435.556 369.731Z" fill="#2E3134" stroke="black" stroke-width="0.2"/>
<path d="M299.68 433.686L299.723 433.774L299.812 433.733L436.042 370.622L436.135 370.579L436.089 370.487L435.825 369.95L435.782 369.862L435.693 369.903L299.463 433.013L299.37 433.057L299.415 433.148L299.68 433.686Z" fill="#2E3134" stroke="black" stroke-width="0.2"/>
<path d="M468.661 450.911L468.701 451.009L468.797 450.962L469.335 450.698L469.419 450.656L469.383 450.57L436.148 370.183L436.108 370.085L436.012 370.132L435.474 370.396L435.39 370.438L435.426 370.524L468.661 450.911Z" fill="#2E3134" stroke="black" stroke-width="0.2"/>
<path d="M436.069 370.068L435.983 370.017L435.932 370.104L435.64 370.606L435.589 370.692L435.676 370.743L598.989 465.961L599.075 466.012L599.125 465.925L599.418 465.423L599.468 465.337L599.382 465.286L436.069 370.068Z" fill="#2E3134" stroke="black" stroke-width="0.2"/>
<path d="M789.833 443.146L789.923 443.135L789.922 443.045L789.91 442.304L789.909 442.193L789.799 442.206L599.132 465.175L599.023 465.188L599.046 465.296L599.169 465.864L599.188 465.953L599.278 465.942L789.833 443.146Z" fill="#2E3134" stroke="black" stroke-width="0.2"/>
<path d="M700.315 334.31L700.236 334.248L700.175 334.327L598.795 465.332L598.734 465.411L598.813 465.472L599.273 465.828L599.352 465.889L599.413 465.81L700.792 334.806L700.854 334.726L700.775 334.665L700.315 334.31Z" fill="#2E3134" stroke="black" stroke-width="0.2"/>
<path d="M667.668 537.366L667.731 537.432L667.803 537.374L668.31 536.968L668.395 536.899L668.319 536.82L599.534 465.287L599.471 465.221L599.4 465.278L598.893 465.685L598.807 465.753L598.883 465.832L667.668 537.366Z" fill="#2E3134" stroke="black" stroke-width="0.2"/>
<path d="M599.298 465.881L599.361 465.96L599.439 465.896L695.025 387.319L695.101 387.256L695.039 387.179L694.633 386.672L694.569 386.593L694.491 386.658L598.906 465.235L598.829 465.297L598.891 465.375L599.298 465.881Z" fill="#2E3134" stroke="black" stroke-width="0.2"/>
<path d="M599.519 465.595L599.61 465.575L599.597 465.483L585.317 366.146L585.302 366.04L585.197 366.062L584.487 366.215L584.395 366.235L584.409 366.327L598.831 465.634L598.846 465.74L598.951 465.717L599.519 465.595Z" fill="#2E3134" stroke="black" stroke-width="0.2"/>
<path d="M487.087 564.545L487.153 564.626L487.231 564.557L599.446 465.896L599.518 465.832L599.458 465.758L599.052 465.251L598.986 465.169L598.907 465.238L486.693 563.9L486.621 563.963L486.681 564.038L487.087 564.545Z" fill="#2E3134" stroke="black" stroke-width="0.2"/>
<path d="M469.166 450.37L469.067 450.359L469.056 450.458L468.99 451.036L468.979 451.135L469.078 451.146L599.16 465.954L599.26 465.965L599.271 465.866L599.337 465.288L599.348 465.189L599.249 465.178L469.166 450.37Z" fill="#2E3134" stroke="black" stroke-width="0.2"/>
<path d="M262.819 459.936L262.87 460L262.943 459.962L436.031 370.623L436.118 370.578L436.075 370.49L435.81 369.952L435.765 369.861L435.675 369.908L262.445 459.278L262.336 459.334L262.412 459.429L262.819 459.936Z" fill="#2E3134" stroke="black" stroke-width="0.2"/>
<path d="M394.852 639.272L394.914 639.356L394.995 639.291L395.502 638.884L395.577 638.824L395.52 638.747L263.05 459.352L262.989 459.268L262.907 459.333L262.401 459.74L262.326 459.8L262.383 459.877L394.852 639.272Z" fill="#2E3134" stroke="black" stroke-width="0.2"/>
<path d="M224.382 203.93L224.284 203.945L224.298 204.044L262.174 459.752L262.189 459.851L262.288 459.837L262.863 459.751L262.962 459.737L262.947 459.638L225.071 203.929L225.056 203.83L224.958 203.845L224.382 203.93Z" fill="#2E3134" stroke="black" stroke-width="0.2"/>
<path d="M262.988 459.787L263.072 459.825L263.117 459.744L336.026 328.382L336.072 328.3L335.993 328.249L335.475 327.915L335.385 327.857L335.333 327.951L262.282 459.343L262.23 459.438L262.328 459.483L262.988 459.787Z" fill="#2E3134" stroke="black" stroke-width="0.2"/>
<path d="M53.3888 432.97L53.2896 432.957L53.2772 433.057L53.205 433.633L53.1926 433.733L53.2918 433.745L262.645 459.948L262.744 459.961L262.757 459.861L262.829 459.285L262.841 459.186L262.742 459.173L53.3888 432.97Z" fill="#2E3134" stroke="black" stroke-width="0.2"/>
<path d="M262.357 459.884L262.419 459.964L262.499 459.901L263.006 459.494L263.082 459.433L263.022 459.355L197.631 374.604L197.569 374.523L197.489 374.587L196.983 374.993L196.906 375.055L196.966 375.133L262.357 459.884Z" fill="#2E3134" stroke="black" stroke-width="0.2"/>
<path d="M199.045 377.345L198.984 377.266L198.905 377.328L198.446 377.684L198.367 377.745L198.428 377.824L262.321 460.117L262.382 460.196L262.461 460.135L262.92 459.779L262.999 459.717L262.938 459.638L199.045 377.345Z" fill="#2E3134" stroke="black" stroke-width="0.2"/>
<path d="M199.045 377.345L198.984 377.266L198.905 377.328L198.446 377.684L198.367 377.745L198.428 377.824L262.321 460.117L262.382 460.196L262.461 460.135L262.92 459.779L262.999 459.717L262.938 459.638L199.045 377.345Z" fill="#2E3134" stroke="black" stroke-width="0.2"/>
<path d="M486.686 564.665L486.777 564.707L486.819 564.616L487.122 563.956L487.164 563.866L487.074 563.824L262.81 459.215L262.701 459.165L262.671 459.281L262.51 459.911L262.489 459.991L262.564 460.026L486.686 564.665Z" fill="#2E3134" stroke="black" stroke-width="0.2"/>
<path d="M300.398 559.719L300.429 559.799L300.513 559.781L301.081 559.659L301.195 559.634L301.153 559.525L263.064 459.375L263.024 459.273L262.926 459.321L262.388 459.586L262.307 459.626L262.339 459.711L300.398 559.719Z" fill="#2E3134" stroke="black" stroke-width="0.2"/>
<path d="M299.318 433.279L299.26 433.198L299.178 433.255L262.34 459.43L262.259 459.488L262.316 459.57L262.653 460.044L262.711 460.125L262.792 460.067L299.631 433.892L299.712 433.834L299.654 433.753L299.318 433.279Z" fill="#2E3134" stroke="black" stroke-width="0.2"/>
<path d="M469.132 451.189L469.251 451.184L469.226 451.068L469.073 450.357L469.055 450.275L468.97 450.279L262.648 459.231L262.529 459.237L262.554 459.352L262.677 459.921L262.694 460.003L262.779 459.999L469.132 451.189Z" fill="#2E3134" stroke="black" stroke-width="0.2"/>
<path d="M572.49 528.173L572.589 528.237L572.636 528.129L599.605 465.681L599.652 465.574L599.538 465.545L598.909 465.383L598.826 465.362L598.792 465.441L571.934 527.715L571.901 527.793L571.972 527.839L572.49 528.173Z" fill="#2E3134" stroke="black" stroke-width="0.2"/>
<path d="M571.867 528.285L571.942 528.372L572.018 528.285L572.494 527.737L572.551 527.671L572.494 527.606L436.104 370.014L436.041 369.942L435.966 370.002L435.459 370.408L435.378 370.473L435.446 370.552L571.867 528.285Z" fill="#2E3134" stroke="black" stroke-width="0.2"/>
<path d="M572.306 528.308L572.345 528.396L572.435 528.361L789.959 443.118L790.056 443.08L790.014 442.985L789.719 442.305L789.681 442.217L789.591 442.252L572.066 527.495L571.97 527.533L572.011 527.628L572.306 528.308Z" fill="#2E3134" stroke="black" stroke-width="0.2"/>
<path d="M572.478 528.174L572.561 528.228L572.615 528.146L701.002 334.879L701.058 334.795L700.973 334.74L700.455 334.406L700.372 334.352L700.318 334.434L571.931 527.701L571.874 527.785L571.96 527.84L572.478 528.174Z" fill="#2E3134" stroke="black" stroke-width="0.2"/>
<path d="M572.236 527.535L572.183 527.451L572.098 527.504L394.9 638.51L394.815 638.563L394.868 638.648L395.177 639.141L395.23 639.225L395.314 639.172L572.513 528.166L572.598 528.113L572.544 528.028L572.236 527.535Z" fill="#2E3134" stroke="black" stroke-width="0.2"/>
<path d="M572.276 527.646L572.176 527.637L572.167 527.736L572.111 528.315L572.101 528.414L572.201 528.424L667.951 537.651L668.05 537.66L668.06 537.561L668.116 536.982L668.125 536.883L668.026 536.873L572.276 527.646Z" fill="#2E3134" stroke="black" stroke-width="0.2"/>
<path d="M572.498 528.173L572.571 528.22L572.628 528.154L695.071 387.302L695.126 387.239L695.074 387.174L694.667 386.667L694.592 386.574L694.514 386.664L571.959 527.689L571.883 527.776L571.98 527.838L572.498 528.173Z" fill="#2E3134" stroke="black" stroke-width="0.2"/>
<path d="M584.718 366.147L584.618 366.139L584.61 366.239L571.958 527.906L571.951 528.005L572.05 528.013L572.63 528.058L572.729 528.066L572.737 527.967L585.389 366.3L585.397 366.2L585.297 366.192L584.718 366.147Z" fill="#2E3134" stroke="black" stroke-width="0.2"/>
<path d="M486.93 564.556L486.972 564.641L487.059 564.604L572.446 528.359L572.539 528.32L572.499 528.227L572.204 527.548L572.164 527.457L572.073 527.496L486.716 563.882L486.619 563.924L486.666 564.019L486.93 564.556Z" fill="#2E3134" stroke="black" stroke-width="0.2"/>
<path d="M469.283 450.633L469.203 450.574L469.143 450.654L468.794 451.119L468.735 451.199L468.815 451.259L572.013 528.473L572.093 528.532L572.153 528.452L572.501 527.987L572.561 527.907L572.481 527.847L469.283 450.633Z" fill="#2E3134" stroke="black" stroke-width="0.2"/>
<path d="M570.079 597.543L570.174 597.541L570.177 597.446L572.73 527.925L572.734 527.82L572.629 527.822L571.888 527.833L571.793 527.834L571.79 527.929L569.237 597.45L569.233 597.555L569.338 597.554L570.079 597.543Z" fill="#2E3134" stroke="black" stroke-width="0.2"/>
<path d="M570.077 597.534L570.177 597.56L570.2 597.459L599.611 465.663L599.632 465.569L599.538 465.545L598.909 465.383L598.809 465.358L598.786 465.458L569.375 597.254L569.354 597.348L569.448 597.373L570.077 597.534Z" fill="#2E3134" stroke="black" stroke-width="0.2"/>
<path d="M569.137 598.568L569.114 598.47L569.016 598.494L394.348 639.82L394.25 639.843L394.273 639.94L394.407 640.506L394.43 640.603L394.527 640.58L569.196 599.254L569.293 599.231L569.27 599.133L569.137 598.568Z" fill="#2E3134" stroke="black" stroke-width="0.2"/>
<path d="M569.735 597.691L569.784 597.79L569.877 597.732L668.216 537.439L668.312 537.38L668.241 537.292L667.835 536.785L667.78 536.716L667.704 536.762L569.508 597.024L569.431 597.072L569.471 597.154L569.735 597.691Z" fill="#2E3134" stroke="black" stroke-width="0.2"/>
<path d="M569.933 597.693L570.021 597.749L570.074 597.66L695.212 387.257L695.269 387.161L695.168 387.115L694.508 386.811L694.426 386.774L694.38 386.851L569.384 597.224L569.334 597.307L569.415 597.359L569.933 597.693Z" fill="#2E3134" stroke="black" stroke-width="0.2"/>
<path d="M570.082 597.542L570.174 597.54L570.18 597.448L585.311 366.316L585.317 366.233L585.236 366.212L584.607 366.051L584.49 366.021L584.482 366.141L569.24 597.446L569.233 597.555L569.341 597.553L570.082 597.542Z" fill="#2E3134" stroke="black" stroke-width="0.2"/>
<path d="M569.533 597.794L569.61 597.824L569.654 597.755L569.989 597.237L570.054 597.135L569.942 597.09L487.107 563.814L487.019 563.778L486.979 563.865L486.676 564.525L486.632 564.62L486.729 564.659L569.533 597.794Z" fill="#2E3134" stroke="black" stroke-width="0.2"/>
<path d="M569.415 597.624L569.464 597.696L569.541 597.658L570.079 597.393L570.183 597.342L570.117 597.247L469.373 450.552L469.324 450.48L469.246 450.518L468.709 450.783L468.605 450.834L468.67 450.929L569.415 597.624Z" fill="#2E3134" stroke="black" stroke-width="0.2"/>
<path d="M572.28 527.684L572.181 527.675L572.172 527.775L572.119 528.353L572.11 528.453L572.209 528.462L830.067 552.084L830.167 552.094L830.176 551.994L830.229 551.415L830.238 551.316L830.139 551.307L572.28 527.684Z" fill="#2E3134" stroke="black" stroke-width="0.2"/>
<path d="M829.86 551.931L829.947 551.963L829.986 551.879L830.29 551.219L830.335 551.121L830.234 551.083L599.295 465.157L599.191 465.118L599.163 465.226L599.002 465.855L598.979 465.942L599.064 465.974L829.86 551.931Z" fill="#2E3134" stroke="black" stroke-width="0.2"/>
<path d="M826.888 315.496L826.788 315.497L826.789 315.597L829.778 551.7L829.78 551.8L829.88 551.798L830.461 551.791L830.561 551.79L830.56 551.69L827.571 315.587L827.569 315.487L827.469 315.488L826.888 315.496Z" fill="#2E3134" stroke="black" stroke-width="0.2"/>
<path d="M829.78 551.728L829.819 551.832L829.918 551.783L830.456 551.519L830.537 551.479L830.506 551.394L790.233 442.499L790.197 442.4L790.1 442.442L789.42 442.737L789.333 442.775L789.366 442.863L829.78 551.728Z" fill="#2E3134" stroke="black" stroke-width="0.2"/>
<path d="M830.43 551.665L830.531 551.691L830.553 551.589L869.796 368.176L869.816 368.082L869.723 368.058L869.093 367.897L868.992 367.871L868.971 367.973L829.728 551.386L829.708 551.48L829.801 551.504L830.43 551.665Z" fill="#2E3134" stroke="black" stroke-width="0.2"/>
<path d="M829.789 551.743L829.836 551.822L829.919 551.782L830.457 551.517L830.554 551.469L830.498 551.376L700.947 334.489L700.899 334.409L700.817 334.45L700.279 334.715L700.182 334.763L700.237 334.856L829.789 551.743Z" fill="#2E3134" stroke="black" stroke-width="0.2"/>
<path d="M830.029 551.907L830.134 551.916L830.138 551.81L830.157 551.212L830.16 551.117L830.066 551.109L668.054 536.685L667.97 536.678L667.948 536.76L667.787 537.389L667.758 537.503L667.875 537.514L830.029 551.907Z" fill="#2E3134" stroke="black" stroke-width="0.2"/>
<path d="M829.759 551.763L829.821 551.839L829.899 551.777L830.405 551.371L830.484 551.307L830.42 551.229L695.067 386.725L695.004 386.649L694.927 386.711L694.42 387.118L694.341 387.181L694.405 387.259L829.759 551.763Z" fill="#2E3134" stroke="black" stroke-width="0.2"/>
<path d="M830.228 551.811L830.292 551.891L830.371 551.825L965.33 438.004L965.415 437.932L965.336 437.855L964.96 437.49L964.895 437.427L964.826 437.486L829.835 551.165L829.76 551.228L829.822 551.304L830.228 551.811Z" fill="#2E3134" stroke="black" stroke-width="0.2"/>
<path d="M964.788 438.09L964.875 438.167L964.938 438.069L965.272 437.551L965.319 437.479L965.255 437.422L827.254 315.11L827.166 315.033L827.103 315.13L826.769 315.648L826.723 315.721L826.787 315.777L964.788 438.09Z" fill="#2E3134" stroke="black" stroke-width="0.2"/>
<path d="M965.024 438.227L965.123 438.225L965.121 438.126L965.11 437.385L965.109 437.284L965.008 437.287L789.775 442.212L789.677 442.215L789.678 442.314L789.689 443.055L789.691 443.156L789.792 443.153L965.024 438.227Z" fill="#2E3134" stroke="black" stroke-width="0.2"/>
<path d="M964.824 438.09L964.91 438.152L964.967 438.063L965.301 437.545L965.352 437.466L965.276 437.41L869.701 367.787L869.627 367.733L869.566 367.802L869.09 368.351L869.019 368.433L869.107 368.497L964.824 438.09Z" fill="#2E3134" stroke="black" stroke-width="0.2"/>
<path d="M830.228 551.811L830.292 551.891L830.371 551.825L965.33 438.004L965.415 437.932L965.336 437.855L964.96 437.49L964.895 437.427L964.826 437.486L829.835 551.165L829.76 551.228L829.822 551.304L830.228 551.811Z" fill="#2E3134" stroke="black" stroke-width="0.2"/>
<path d="M964.788 438.09L964.875 438.167L964.938 438.069L965.272 437.551L965.319 437.479L965.255 437.422L827.254 315.11L827.166 315.033L827.103 315.13L826.769 315.648L826.723 315.721L826.787 315.777L964.788 438.09Z" fill="#2E3134" stroke="black" stroke-width="0.2"/>
<path d="M965.024 438.227L965.123 438.225L965.121 438.126L965.11 437.385L965.109 437.284L965.008 437.287L789.775 442.212L789.677 442.215L789.678 442.314L789.689 443.055L789.691 443.156L789.792 443.153L965.024 438.227Z" fill="#2E3134" stroke="black" stroke-width="0.2"/>
<path d="M964.824 438.09L964.91 438.152L964.967 438.063L965.301 437.545L965.352 437.466L965.276 437.41L869.701 367.787L869.627 367.733L869.566 367.802L869.09 368.351L869.019 368.433L869.107 368.497L964.824 438.09Z" fill="#2E3134" stroke="black" stroke-width="0.2"/>
</g>
</svg>
