<svg width="80" height="80" viewBox="0 0 80 80" fill="none" xmlns="http://www.w3.org/2000/svg">
<g clip-path="url(#clip0_1_23124)">
<path d="M59.5 23.5H20.5C18.8431 23.5 17.5 24.8431 17.5 26.5V59.5C17.5 61.1569 18.8431 62.5 20.5 62.5H59.5C61.1569 62.5 62.5 61.1569 62.5 59.5V26.5C62.5 24.8431 61.1569 23.5 59.5 23.5Z" stroke="url(#paint0_linear_1_23124)" stroke-width="2" stroke-linejoin="round"/>
<path d="M17.5 35.5H62.5" stroke="url(#paint1_linear_1_23124)" stroke-width="2" stroke-linejoin="round"/>
<path d="M29.5 28V17.5" stroke="url(#paint2_linear_1_23124)" stroke-width="2" stroke-linecap="round" stroke-linejoin="round"/>
<path d="M50.5 28V17.5" stroke="url(#paint3_linear_1_23124)" stroke-width="2" stroke-linecap="round" stroke-linejoin="round"/>
<path d="M47.5 43L38.5 55L32.5 49" stroke="url(#paint4_linear_1_23124)" stroke-width="2" stroke-linecap="round" stroke-linejoin="round"/>
</g>
<defs>
<linearGradient id="paint0_linear_1_23124" x1="17.5781" y1="23.7666" x2="67.9953" y2="53.0335" gradientUnits="userSpaceOnUse">
<stop stop-color="#59A646"/>
<stop offset="0.869792" stop-color="#007667"/>
</linearGradient>
<linearGradient id="paint1_linear_1_23124" x1="17.5781" y1="35.5068" x2="17.7094" y2="38.4784" gradientUnits="userSpaceOnUse">
<stop stop-color="#59A646"/>
<stop offset="0.869792" stop-color="#007667"/>
</linearGradient>
<linearGradient id="paint2_linear_1_23124" x1="29.5017" y1="17.5718" x2="30.9962" y2="17.6434" gradientUnits="userSpaceOnUse">
<stop stop-color="#59A646"/>
<stop offset="0.869792" stop-color="#007667"/>
</linearGradient>
<linearGradient id="paint3_linear_1_23124" x1="50.5017" y1="17.5718" x2="51.9962" y2="17.6434" gradientUnits="userSpaceOnUse">
<stop stop-color="#59A646"/>
<stop offset="0.869792" stop-color="#007667"/>
</linearGradient>
<linearGradient id="paint4_linear_1_23124" x1="32.526" y1="43.082" x2="48.6272" y2="53.2076" gradientUnits="userSpaceOnUse">
<stop stop-color="#59A646"/>
<stop offset="0.869792" stop-color="#007667"/>
</linearGradient>
<clipPath id="clip0_1_23124">
<rect width="48" height="48" fill="white" transform="translate(16 16)"/>
</clipPath>
</defs>
</svg>
