<svg width="80" height="80" viewBox="0 0 80 80" fill="none" xmlns="http://www.w3.org/2000/svg">
<g clip-path="url(#clip0_1_23081)">
<path d="M25 52H23.5C21.9087 52 20.3826 51.3679 19.2574 50.2426C18.1321 49.1174 17.5 47.5913 17.5 46V40C17.5 38.4087 18.1321 36.8826 19.2574 35.7574C20.3826 34.6321 21.9087 34 23.5 34H25C25.3978 34 25.7794 34.158 26.0607 34.4393C26.342 34.7206 26.5 35.1022 26.5 35.5V50.5C26.5 50.8978 26.342 51.2794 26.0607 51.5607C25.7794 51.842 25.3978 52 25 52Z" stroke="url(#paint0_linear_1_23081)" stroke-width="2" stroke-linecap="round" stroke-linejoin="round"/>
<path d="M56.5 52H55C54.6022 52 54.2206 51.842 53.9393 51.5607C53.658 51.2794 53.5 50.8978 53.5 50.5V35.5C53.5 35.1022 53.658 34.7206 53.9393 34.4393C54.2206 34.158 54.6022 34 55 34H56.5C58.0913 34 59.6174 34.6321 60.7426 35.7574C61.8679 36.8826 62.5 38.4087 62.5 40V46C62.5 47.5913 61.8679 49.1174 60.7426 50.2426C59.6174 51.3679 58.0913 52 56.5 52Z" stroke="url(#paint1_linear_1_23081)" stroke-width="2" stroke-linecap="round" stroke-linejoin="round"/>
<path d="M23.5 34C23.5 29.6239 25.2384 25.4271 28.3327 22.3327C31.4271 19.2384 35.6239 17.5 40 17.5C44.3761 17.5 48.5729 19.2384 51.6673 22.3327C54.7616 25.4271 56.5 29.6239 56.5 34" stroke="url(#paint2_linear_1_23081)" stroke-width="2" stroke-linecap="round" stroke-linejoin="round"/>
<path d="M46 59.5H50.5C52.0913 59.5 53.6174 58.8679 54.7426 57.7426C55.8679 56.6174 56.5 55.0913 56.5 53.5V52" stroke="url(#paint3_linear_1_23081)" stroke-width="2" stroke-linecap="round" stroke-linejoin="round"/>
<path d="M43 62.5H40C39.2044 62.5 38.4413 62.1839 37.8787 61.6213C37.3161 61.0587 37 60.2956 37 59.5C37 58.7044 37.3161 57.9413 37.8787 57.3787C38.4413 56.8161 39.2044 56.5 40 56.5H43C43.7956 56.5 44.5587 56.8161 45.1213 57.3787C45.6839 57.9413 46 58.7044 46 59.5C46 60.2956 45.6839 61.0587 45.1213 61.6213C44.5587 62.1839 43.7956 62.5 43 62.5Z" stroke="url(#paint4_linear_1_23081)" stroke-width="2" stroke-linecap="round" stroke-linejoin="round"/>
<path d="M34 46.884C35.6406 48.3791 37.7803 49.2078 40 49.2078C42.2197 49.2078 44.3594 48.3791 46 46.884" stroke="url(#paint5_linear_1_23081)" stroke-width="2" stroke-linecap="round" stroke-linejoin="round"/>
<path d="M34 35.97V38.594" stroke="url(#paint6_linear_1_23081)" stroke-width="2" stroke-linecap="round" stroke-linejoin="round"/>
<path d="M46 35.97V38.594" stroke="url(#paint7_linear_1_23081)" stroke-width="2" stroke-linecap="round" stroke-linejoin="round"/>
</g>
<defs>
<linearGradient id="paint0_linear_1_23081" x1="17.5156" y1="34.123" x2="30.1946" y2="37.3124" gradientUnits="userSpaceOnUse">
<stop stop-color="#59A646"/>
<stop offset="0.869792" stop-color="#007667"/>
</linearGradient>
<linearGradient id="paint1_linear_1_23081" x1="53.5156" y1="34.123" x2="66.1946" y2="37.3124" gradientUnits="userSpaceOnUse">
<stop stop-color="#59A646"/>
<stop offset="0.869792" stop-color="#007667"/>
</linearGradient>
<linearGradient id="paint2_linear_1_23081" x1="23.5573" y1="17.6128" x2="48.1204" y2="42.328" gradientUnits="userSpaceOnUse">
<stop stop-color="#59A646"/>
<stop offset="0.869792" stop-color="#007667"/>
</linearGradient>
<linearGradient id="paint3_linear_1_23081" x1="46.0182" y1="52.0513" x2="56.5311" y2="59.4558" gradientUnits="userSpaceOnUse">
<stop stop-color="#59A646"/>
<stop offset="0.869792" stop-color="#007667"/>
</linearGradient>
<linearGradient id="paint4_linear_1_23081" x1="37.0156" y1="56.541" x2="45.6052" y2="63.0231" gradientUnits="userSpaceOnUse">
<stop stop-color="#59A646"/>
<stop offset="0.869792" stop-color="#007667"/>
</linearGradient>
<linearGradient id="paint5_linear_1_23081" x1="34.0208" y1="46.8999" x2="36.3403" y2="52.9259" gradientUnits="userSpaceOnUse">
<stop stop-color="#59A646"/>
<stop offset="0.869792" stop-color="#007667"/>
</linearGradient>
<linearGradient id="paint6_linear_1_23081" x1="34.0017" y1="35.9879" x2="35.4465" y2="36.2649" gradientUnits="userSpaceOnUse">
<stop stop-color="#59A646"/>
<stop offset="0.869792" stop-color="#007667"/>
</linearGradient>
<linearGradient id="paint7_linear_1_23081" x1="46.0017" y1="35.9879" x2="47.4465" y2="36.2649" gradientUnits="userSpaceOnUse">
<stop stop-color="#59A646"/>
<stop offset="0.869792" stop-color="#007667"/>
</linearGradient>
<clipPath id="clip0_1_23081">
<rect width="48" height="48" fill="white" transform="translate(16 16)"/>
</clipPath>
</defs>
</svg>
