<svg width="24" height="25" viewBox="0 0 24 25" fill="none" xmlns="http://www.w3.org/2000/svg">
<path d="M20.4997 22.7519V24.4995H23.9997V22.7519L23.9999 22.7496L23.9997 22.7471V20.9995H20.4997V22.7471L20.4995 22.7496L20.4997 22.7519Z" fill="url(#paint0_linear_5_15568)"/>
<path d="M13.75 22.7501C13.75 23.7166 12.9666 24.5 12.0001 24.5C11.0335 24.5 10.25 23.7166 10.25 22.7501C10.25 21.7835 11.0335 21 12.0001 21C12.9666 21 13.75 21.7835 13.75 22.7501Z" fill="url(#paint1_linear_5_15568)"/>
<path d="M3.49985 22.7501C3.49985 23.7166 2.71639 24.5 1.74992 24.5C0.783463 24.5 0 23.7166 0 22.7501C0 21.7835 0.783463 21 1.74992 21C2.71639 21 3.49985 21.7835 3.49985 22.7501Z" fill="url(#paint2_linear_5_15568)"/>
<path d="M24 12.4999C24 13.4664 23.2164 14.2498 22.2499 14.2498C21.2835 14.2498 20.5 13.4664 20.5 12.4999C20.5 11.5335 21.2835 10.75 22.2499 10.75C23.2164 10.75 24 11.5335 24 12.4999Z" fill="url(#paint3_linear_5_15568)"/>
<path d="M10.2503 12.5024V14.2498H13.7502V12.5024L13.7505 12.4999L13.7502 12.4974V10.75H10.2503V12.4974L10.25 12.4999L10.2503 12.5024Z" fill="url(#paint4_linear_5_15568)"/>
<path d="M3.49985 12.4999C3.49985 13.4664 2.71639 14.2498 1.74992 14.2498C0.783463 14.2498 0 13.4664 0 12.4999C0 11.5335 0.783463 10.75 1.74992 10.75C2.71639 10.75 3.49985 11.5335 3.49985 12.4999Z" fill="url(#paint5_linear_5_15568)"/>
<path d="M24 2.24992C24 3.21656 23.2164 4.00002 22.2499 4.00002C21.2835 4.00002 20.5 3.21656 20.5 2.24992C20.5 1.28346 21.2835 0.5 22.2499 0.5C23.2164 0.5 24 1.28346 24 2.24992" fill="url(#paint6_linear_5_15568)"/>
<path d="M13.75 2.24992C13.75 3.21656 12.9666 4.00002 12.0001 4.00002C11.0335 4.00002 10.25 3.21656 10.25 2.24992C10.25 1.28346 11.0335 0.5 12.0001 0.5C12.9666 0.5 13.75 1.28346 13.75 2.24992" fill="url(#paint7_linear_5_15568)"/>
<path d="M0.000167409 0.5V2.24757L0 2.24991L0.000167409 2.25242V3.99999H3.50019V2.25242L3.50036 2.24991L3.50019 2.24757V0.5H0.000167409Z" fill="url(#paint8_linear_5_15568)"/>
<defs>
<linearGradient id="paint0_linear_5_15568" x1="20.5056" y1="21.0234" x2="24.6896" y2="23.1286" gradientUnits="userSpaceOnUse">
<stop stop-color="#59A646"/>
<stop offset="0.869792" stop-color="#007667"/>
</linearGradient>
<linearGradient id="paint1_linear_5_15568" x1="10.2561" y1="21.0239" x2="14.4399" y2="23.1288" gradientUnits="userSpaceOnUse">
<stop stop-color="#59A646"/>
<stop offset="0.869792" stop-color="#007667"/>
</linearGradient>
<linearGradient id="paint2_linear_5_15568" x1="0.00607612" y1="21.0239" x2="4.18976" y2="23.1286" gradientUnits="userSpaceOnUse">
<stop stop-color="#59A646"/>
<stop offset="0.869792" stop-color="#007667"/>
</linearGradient>
<linearGradient id="paint3_linear_5_15568" x1="20.5061" y1="10.7739" x2="24.6898" y2="12.8788" gradientUnits="userSpaceOnUse">
<stop stop-color="#59A646"/>
<stop offset="0.869792" stop-color="#007667"/>
</linearGradient>
<linearGradient id="paint4_linear_5_15568" x1="10.2561" y1="10.7739" x2="14.4401" y2="12.8793" gradientUnits="userSpaceOnUse">
<stop stop-color="#59A646"/>
<stop offset="0.869792" stop-color="#007667"/>
</linearGradient>
<linearGradient id="paint5_linear_5_15568" x1="0.00607612" y1="10.7739" x2="4.18968" y2="12.8787" gradientUnits="userSpaceOnUse">
<stop stop-color="#59A646"/>
<stop offset="0.869792" stop-color="#007667"/>
</linearGradient>
<linearGradient id="paint6_linear_5_15568" x1="20.5061" y1="0.523926" x2="24.6899" y2="2.62878" gradientUnits="userSpaceOnUse">
<stop stop-color="#59A646"/>
<stop offset="0.869792" stop-color="#007667"/>
</linearGradient>
<linearGradient id="paint7_linear_5_15568" x1="10.2561" y1="0.523926" x2="14.4399" y2="2.62878" gradientUnits="userSpaceOnUse">
<stop stop-color="#59A646"/>
<stop offset="0.869792" stop-color="#007667"/>
</linearGradient>
<linearGradient id="paint8_linear_5_15568" x1="0.006077" y1="0.523926" x2="4.19011" y2="2.62911" gradientUnits="userSpaceOnUse">
<stop stop-color="#59A646"/>
<stop offset="0.869792" stop-color="#007667"/>
</linearGradient>
</defs>
</svg>
