<svg width="80" height="80" viewBox="0 0 80 80" fill="none" xmlns="http://www.w3.org/2000/svg">
<g clip-path="url(#clip0_1_23171)">
<path d="M25 32.5C27.4853 32.5 29.5 30.4853 29.5 28C29.5 25.5147 27.4853 23.5 25 23.5C22.5147 23.5 20.5 25.5147 20.5 28C20.5 30.4853 22.5147 32.5 25 32.5Z" stroke="url(#paint0_linear_1_23171)" stroke-width="2" stroke-linecap="round" stroke-linejoin="round"/>
<path d="M25 35.5C23.0109 35.5 21.1032 36.2902 19.6967 37.6967C18.2902 39.1032 17.5 41.0109 17.5 43V47.5H20.5L22 59.5H28" stroke="url(#paint1_linear_1_23171)" stroke-width="2" stroke-linecap="round" stroke-linejoin="round"/>
<path d="M55 32.5C57.4853 32.5 59.5 30.4853 59.5 28C59.5 25.5147 57.4853 23.5 55 23.5C52.5147 23.5 50.5 25.5147 50.5 28C50.5 30.4853 52.5147 32.5 55 32.5Z" stroke="url(#paint2_linear_1_23171)" stroke-width="2" stroke-linecap="round" stroke-linejoin="round"/>
<path d="M55 35.5C56.9891 35.5 58.8968 36.2902 60.3033 37.6967C61.7098 39.1032 62.5 41.0109 62.5 43V47.5H59.5L58 59.5H52" stroke="url(#paint3_linear_1_23171)" stroke-width="2" stroke-linecap="round" stroke-linejoin="round"/>
<path d="M40 29.5C43.3137 29.5 46 26.8137 46 23.5C46 20.1863 43.3137 17.5 40 17.5C36.6863 17.5 34 20.1863 34 23.5C34 26.8137 36.6863 29.5 40 29.5Z" stroke="url(#paint4_linear_1_23171)" stroke-width="2" stroke-linecap="round" stroke-linejoin="round"/>
<path d="M50.5 43C50.5 40.2152 49.3938 37.5445 47.4246 35.5754C45.4555 33.6062 42.7848 32.5 40 32.5C37.2152 32.5 34.5445 33.6062 32.5754 35.5754C30.6062 37.5445 29.5 40.2152 29.5 43V47.5H34L35.5 62.5H44.5L46 47.5H50.5V43Z" stroke="url(#paint5_linear_1_23171)" stroke-width="2" stroke-linecap="round" stroke-linejoin="round"/>
</g>
<defs>
<linearGradient id="paint0_linear_1_23171" x1="20.5156" y1="23.5615" x2="31.2739" y2="28.974" gradientUnits="userSpaceOnUse">
<stop stop-color="#59A646"/>
<stop offset="0.869792" stop-color="#007667"/>
</linearGradient>
<linearGradient id="paint1_linear_1_23171" x1="17.5182" y1="35.6641" x2="32.5196" y2="38.9659" gradientUnits="userSpaceOnUse">
<stop stop-color="#59A646"/>
<stop offset="0.869792" stop-color="#007667"/>
</linearGradient>
<linearGradient id="paint2_linear_1_23171" x1="50.5156" y1="23.5615" x2="61.2739" y2="28.974" gradientUnits="userSpaceOnUse">
<stop stop-color="#59A646"/>
<stop offset="0.869792" stop-color="#007667"/>
</linearGradient>
<linearGradient id="paint3_linear_1_23171" x1="52.0182" y1="35.6641" x2="67.0196" y2="38.9659" gradientUnits="userSpaceOnUse">
<stop stop-color="#59A646"/>
<stop offset="0.869792" stop-color="#007667"/>
</linearGradient>
<linearGradient id="paint4_linear_1_23171" x1="34.0208" y1="17.582" x2="48.3652" y2="24.7986" gradientUnits="userSpaceOnUse">
<stop stop-color="#59A646"/>
<stop offset="0.869792" stop-color="#007667"/>
</linearGradient>
<linearGradient id="paint5_linear_1_23171" x1="29.5365" y1="32.7051" x2="57.522" y2="42.5607" gradientUnits="userSpaceOnUse">
<stop stop-color="#59A646"/>
<stop offset="0.869792" stop-color="#007667"/>
</linearGradient>
<clipPath id="clip0_1_23171">
<rect width="48" height="48" fill="white" transform="translate(16 16)"/>
</clipPath>
</defs>
</svg>
