<svg width="80" height="80" viewBox="0 0 80 80" fill="none" xmlns="http://www.w3.org/2000/svg">
<path d="M59.5 19H20.5C19.6716 19 19 19.6716 19 20.5V23.5C19 24.3284 19.6716 25 20.5 25H59.5C60.3284 25 61 24.3284 61 23.5V20.5C61 19.6716 60.3284 19 59.5 19Z" stroke="url(#paint0_linear_1_23096)" stroke-width="2" stroke-linecap="round" stroke-linejoin="round"/>
<path d="M22 25H58V52H22V25Z" stroke="url(#paint1_linear_1_23096)" stroke-width="2" stroke-linecap="round" stroke-linejoin="round"/>
<path d="M40 59V52" stroke="url(#paint2_linear_1_23096)" stroke-width="2" stroke-linecap="round" stroke-linejoin="round"/>
<path d="M19 52H61" stroke="url(#paint3_linear_1_23096)" stroke-width="2" stroke-linecap="round" stroke-linejoin="round"/>
<path d="M43 61C43 59.894 41.656 59 40 59C38.344 59 37 59.894 37 61" stroke="url(#paint4_linear_1_23096)" stroke-width="2" stroke-linecap="round" stroke-linejoin="round"/>
<path d="M31 46H49" stroke="url(#paint5_linear_1_23096)" stroke-width="2" stroke-linecap="round" stroke-linejoin="round"/>
<path d="M34 40V46" stroke="url(#paint6_linear_1_23096)" stroke-width="2" stroke-linecap="round" stroke-linejoin="round"/>
<path d="M40 35.5V46" stroke="url(#paint7_linear_1_23096)" stroke-width="2" stroke-linecap="round" stroke-linejoin="round"/>
<path d="M46 31V46" stroke="url(#paint8_linear_1_23096)" stroke-width="2" stroke-linecap="round" stroke-linejoin="round"/>
<defs>
<linearGradient id="paint0_linear_1_23096" x1="19.0729" y1="19.041" x2="23.7671" y2="35.5725" gradientUnits="userSpaceOnUse">
<stop stop-color="#59A646"/>
<stop offset="0.869792" stop-color="#007667"/>
</linearGradient>
<linearGradient id="paint1_linear_1_23096" x1="22.0625" y1="25.1846" x2="59.2531" y2="50.1318" gradientUnits="userSpaceOnUse">
<stop stop-color="#59A646"/>
<stop offset="0.869792" stop-color="#007667"/>
</linearGradient>
<linearGradient id="paint2_linear_1_23096" x1="40.0017" y1="52.0479" x2="41.492" y2="52.155" gradientUnits="userSpaceOnUse">
<stop stop-color="#59A646"/>
<stop offset="0.869792" stop-color="#007667"/>
</linearGradient>
<linearGradient id="paint3_linear_1_23096" x1="19.0729" y1="52.0068" x2="19.2135" y2="54.9776" gradientUnits="userSpaceOnUse">
<stop stop-color="#59A646"/>
<stop offset="0.869792" stop-color="#007667"/>
</linearGradient>
<linearGradient id="paint4_linear_1_23096" x1="37.0104" y1="59.0137" x2="39.7522" y2="63.1519" gradientUnits="userSpaceOnUse">
<stop stop-color="#59A646"/>
<stop offset="0.869792" stop-color="#007667"/>
</linearGradient>
<linearGradient id="paint5_linear_1_23096" x1="31.0312" y1="46.0068" x2="31.3561" y2="48.9484" gradientUnits="userSpaceOnUse">
<stop stop-color="#59A646"/>
<stop offset="0.869792" stop-color="#007667"/>
</linearGradient>
<linearGradient id="paint6_linear_1_23096" x1="34.0017" y1="40.041" x2="35.4892" y2="40.1657" gradientUnits="userSpaceOnUse">
<stop stop-color="#59A646"/>
<stop offset="0.869792" stop-color="#007667"/>
</linearGradient>
<linearGradient id="paint7_linear_1_23096" x1="40.0017" y1="35.5718" x2="41.4962" y2="35.6434" gradientUnits="userSpaceOnUse">
<stop stop-color="#59A646"/>
<stop offset="0.869792" stop-color="#007667"/>
</linearGradient>
<linearGradient id="paint8_linear_1_23096" x1="46.0017" y1="31.1025" x2="47.498" y2="31.1527" gradientUnits="userSpaceOnUse">
<stop stop-color="#59A646"/>
<stop offset="0.869792" stop-color="#007667"/>
</linearGradient>
</defs>
</svg>
