<svg width="80" height="80" viewBox="0 0 80 80" fill="none" xmlns="http://www.w3.org/2000/svg">
<path d="M55 35.628V34C54.9884 30.0253 53.4043 26.2168 50.5938 23.4062C47.7832 20.5957 43.9747 19.0116 40 19C36.0253 19.0116 32.2168 20.5957 29.4062 23.4062C26.5957 26.2168 25.0116 30.0253 25 34V35.628" stroke="url(#paint0_linear_1_23136)" stroke-width="2" stroke-linecap="round" stroke-linejoin="round"/>
<path d="M26.5 46.75C26.5 47.3467 26.2629 47.919 25.841 48.341C25.419 48.7629 24.8467 49 24.25 49C22.4598 49 20.7429 48.2888 19.477 47.023C18.2112 45.7571 17.5 44.0402 17.5 42.25C17.5 40.4598 18.2112 38.7429 19.477 37.477C20.7429 36.2112 22.4598 35.5 24.25 35.5C24.8467 35.5 25.419 35.7371 25.841 36.159C26.2629 36.581 26.5 37.1533 26.5 37.75V46.75Z" stroke="url(#paint1_linear_1_23136)" stroke-width="2" stroke-linecap="round" stroke-linejoin="round"/>
<path d="M53.5 46.75C53.5 47.3467 53.7371 47.919 54.159 48.341C54.581 48.7629 55.1533 49 55.75 49C57.5402 49 59.2571 48.2888 60.523 47.023C61.7888 45.7571 62.5 44.0402 62.5 42.25C62.5 40.4598 61.7888 38.7429 60.523 37.477C59.2571 36.2112 57.5402 35.5 55.75 35.5C55.1533 35.5 54.581 35.7371 54.159 36.159C53.7371 36.581 53.5 37.1533 53.5 37.75V46.75Z" stroke="url(#paint2_linear_1_23136)" stroke-width="2" stroke-linecap="round" stroke-linejoin="round"/>
<path d="M50.5 37H29.5C28.7044 37 27.9413 37.3161 27.3787 37.8787C26.8161 38.4413 26.5 39.2044 26.5 40V49C26.5 49.7956 26.8161 50.5587 27.3787 51.1213C27.9413 51.6839 28.7044 52 29.5 52H35.5L40 49L44.498 52H50.498C51.2937 52 52.0567 51.6839 52.6193 51.1213C53.1819 50.5587 53.498 49.7956 53.498 49V40C53.498 39.2047 53.1822 38.4419 52.62 37.8794C52.0579 37.3168 51.2953 37.0005 50.5 37Z" stroke="url(#paint3_linear_1_23136)" stroke-width="2" stroke-linecap="round" stroke-linejoin="round"/>
<path d="M32.5 43H47.5" stroke="url(#paint4_linear_1_23136)" stroke-width="2" stroke-linecap="round" stroke-linejoin="round"/>
<path d="M31 58C33.8683 60.1499 37.4116 61.2015 40.9882 60.9645C44.5649 60.7275 47.9385 59.2175 50.498 56.708" stroke="url(#paint5_linear_1_23136)" stroke-width="2" stroke-linecap="round" stroke-linejoin="round"/>
<defs>
<linearGradient id="paint0_linear_1_23136" x1="25.0521" y1="19.1137" x2="49.6906" y2="41.4775" gradientUnits="userSpaceOnUse">
<stop stop-color="#59A646"/>
<stop offset="0.869792" stop-color="#007667"/>
</linearGradient>
<linearGradient id="paint1_linear_1_23136" x1="17.5156" y1="35.5923" x2="29.6337" y2="39.6567" gradientUnits="userSpaceOnUse">
<stop stop-color="#59A646"/>
<stop offset="0.869792" stop-color="#007667"/>
</linearGradient>
<linearGradient id="paint2_linear_1_23136" x1="53.5156" y1="35.5923" x2="65.6337" y2="39.6567" gradientUnits="userSpaceOnUse">
<stop stop-color="#59A646"/>
<stop offset="0.869792" stop-color="#007667"/>
</linearGradient>
<linearGradient id="paint3_linear_1_23136" x1="26.5469" y1="37.1025" x2="48.7679" y2="57.2238" gradientUnits="userSpaceOnUse">
<stop stop-color="#59A646"/>
<stop offset="0.869792" stop-color="#007667"/>
</linearGradient>
<linearGradient id="paint4_linear_1_23136" x1="32.526" y1="43.0068" x2="32.9138" y2="45.9329" gradientUnits="userSpaceOnUse">
<stop stop-color="#59A646"/>
<stop offset="0.869792" stop-color="#007667"/>
</linearGradient>
<linearGradient id="paint5_linear_1_23136" x1="31.0339" y1="56.7373" x2="35.722" y2="67.4586" gradientUnits="userSpaceOnUse">
<stop stop-color="#59A646"/>
<stop offset="0.869792" stop-color="#007667"/>
</linearGradient>
</defs>
</svg>
