<svg width="20" height="21" viewBox="0 0 20 21" fill="none" xmlns="http://www.w3.org/2000/svg">
<path d="M13.3332 15.4998C13.3332 14.6158 12.982 13.7679 12.3569 13.1428C11.7317 12.5177 10.8839 12.1665 9.99984 12.1665C9.11578 12.1665 8.26794 12.5177 7.64281 13.1428C7.01769 13.7679 6.6665 14.6158 6.6665 15.4998" stroke="white" stroke-width="1.5" stroke-linecap="round" stroke-linejoin="round"/>
<path d="M10 12.1665C11.3807 12.1665 12.5 11.0472 12.5 9.6665C12.5 8.28579 11.3807 7.1665 10 7.1665C8.61929 7.1665 7.5 8.28579 7.5 9.6665C7.5 11.0472 8.61929 12.1665 10 12.1665Z" stroke="white" stroke-width="1.5" stroke-linecap="round" stroke-linejoin="round"/>
<path d="M15.8333 3.83301H4.16667C3.24619 3.83301 2.5 4.5792 2.5 5.49967V17.1663C2.5 18.0868 3.24619 18.833 4.16667 18.833H15.8333C16.7538 18.833 17.5 18.0868 17.5 17.1663V5.49967C17.5 4.5792 16.7538 3.83301 15.8333 3.83301Z" stroke="white" stroke-width="1.5" stroke-linecap="round" stroke-linejoin="round"/>
<path d="M6.6665 2.1665V3.83317M13.3332 2.1665V3.83317" stroke="white" stroke-width="1.5" stroke-linecap="round" stroke-linejoin="round"/>
</svg>
