<svg width="80" height="80" viewBox="0 0 80 80" fill="none" xmlns="http://www.w3.org/2000/svg">
<path d="M38.334 29.491C44.6498 29.491 49.7024 34.5437 49.7024 40.8596C49.7024 47.1755 44.6498 52.2283 38.334 52.2283C32.0182 52.2283 26.9656 47.1755 26.9656 40.8596C26.9656 34.5437 32.0182 29.491 38.334 29.491ZM38.334 32.0173C35.9889 32.0173 33.7399 32.9489 32.0817 34.6072C30.4235 36.2654 29.4919 38.5145 29.4919 40.8596C29.4919 43.2047 30.4235 45.4538 32.0817 47.112C33.7399 48.7703 35.9889 49.7019 38.334 49.7019C40.6791 49.7019 42.9281 48.7703 44.5863 47.112C46.2445 45.4538 47.1761 43.2047 47.1761 40.8596C47.1761 38.5145 46.2445 36.2654 44.5863 34.6072C42.9281 32.9489 40.6791 32.0173 38.334 32.0173ZM21.9129 21.9119H26.9656L32.0182 16.8591H44.6498L49.7024 21.9119H54.755C56.7651 21.9119 58.6928 22.7104 60.1142 24.1317C61.5355 25.5531 62.334 27.4809 62.334 29.491V52.2283C62.334 54.2384 61.5355 56.1661 60.1142 57.5875C58.6928 59.0088 56.7651 59.8074 54.755 59.8074H21.9129C19.9029 59.8074 17.9751 59.0088 16.5538 57.5875C15.1325 56.1661 14.334 54.2384 14.334 52.2283V29.491C14.334 27.4809 15.1325 25.5531 16.5538 24.1317C17.9751 22.7104 19.9029 21.9119 21.9129 21.9119ZM33.054 19.3855L28.0014 24.4382H21.9129C20.5729 24.4382 19.2877 24.9706 18.3402 25.9181C17.3926 26.8657 16.8603 28.1509 16.8603 29.491V52.2283C16.8603 53.5683 17.3926 54.8535 18.3402 55.8011C19.2877 56.7486 20.5729 57.281 21.9129 57.281H54.755C56.0951 57.281 57.3802 56.7486 58.3278 55.8011C59.2753 54.8535 59.8077 53.5683 59.8077 52.2283V29.491C59.8077 28.1509 59.2753 26.8657 58.3278 25.9181C57.3802 24.9706 56.0951 24.4382 54.755 24.4382H48.6666L43.614 19.3855H33.054Z" fill="url(#paint0_linear_1_23163)"/>
<path d="M62.5 19.5L69 13M65.5 40H74.5M62.5 57.5L69 64.5" stroke="url(#paint1_linear_1_23163)" stroke-width="2" stroke-linecap="round" stroke-linejoin="round"/>
<path d="M14 19.5L7.5 13M11 40H2M14 57.5L7.5 64.5" stroke="url(#paint2_linear_1_23163)" stroke-width="2" stroke-linecap="round" stroke-linejoin="round"/>
<defs>
<linearGradient id="paint0_linear_1_23163" x1="14.4173" y1="17.1527" x2="69.0465" y2="47.8692" gradientUnits="userSpaceOnUse">
<stop stop-color="#59A646"/>
<stop offset="0.869792" stop-color="#007667"/>
</linearGradient>
<linearGradient id="paint1_linear_1_23163" x1="62.5208" y1="13.3521" x2="80.2522" y2="15.4306" gradientUnits="userSpaceOnUse">
<stop stop-color="#59A646"/>
<stop offset="0.869792" stop-color="#007667"/>
</linearGradient>
<linearGradient id="paint2_linear_1_23163" x1="13.9792" y1="13.3521" x2="-3.75221" y2="15.4306" gradientUnits="userSpaceOnUse">
<stop stop-color="#59A646"/>
<stop offset="0.869792" stop-color="#007667"/>
</linearGradient>
</defs>
</svg>
