<svg width="20" height="20" viewBox="0 0 20 20" fill="none" xmlns="http://www.w3.org/2000/svg">
<g clip-path="url(#clip0_5_8409)">
<path d="M2.29924 13.024C1.99815 13.024 1.70525 12.926 1.46478 12.7448C1.22432 12.5636 1.04936 12.3091 0.966345 12.0196C0.883331 11.7302 0.896772 11.4216 1.00464 11.1405C1.1125 10.8594 1.30893 10.6211 1.56424 10.4615L16.9667 0.833145C17.1952 0.690154 17.4605 0.6169 17.73 0.622354C17.9994 0.627808 18.2615 0.711734 18.484 0.863853C18.7065 1.01597 18.8799 1.22968 18.9828 1.47881C19.0857 1.72794 19.1137 2.00167 19.0634 2.26648L16.0634 18.244C16.0136 18.5083 15.888 18.7525 15.7019 18.9467C15.5159 19.1409 15.2773 19.2768 15.0153 19.3378C14.7534 19.3988 14.4793 19.3824 14.2265 19.2904C13.9738 19.1984 13.7532 19.0349 13.5917 18.8198L9.25007 13.024H2.29924Z" stroke="#2E3134" stroke-width="1.5" stroke-linecap="round" stroke-linejoin="round"/>
<path d="M9.24984 13.0239H7.1665V17.3331C7.16649 17.5852 7.23523 17.8325 7.36533 18.0484C7.49543 18.2643 7.68196 18.4407 7.90483 18.5584C8.12771 18.6762 8.37849 18.731 8.63017 18.7168C8.88186 18.7027 9.12491 18.6201 9.33317 18.4781L11.9815 16.6731L9.24984 13.0239Z" stroke="#2E3134" stroke-width="1.5" stroke-linecap="round" stroke-linejoin="round"/>
<path d="M9.24902 13.0241L18.4824 0.865723" stroke="#2E3134" stroke-width="1.5" stroke-linecap="round" stroke-linejoin="round"/>
</g>
<defs>
<clipPath id="clip0_5_8409">
<rect width="20" height="20" fill="white"/>
</clipPath>
</defs>
</svg>
