<svg width="20" height="20" viewBox="0 0 20 20" fill="none" xmlns="http://www.w3.org/2000/svg">
<g clip-path="url(#clip0_5_5306)">
<path d="M2.29924 13.0242C1.99815 13.0242 1.70525 12.9262 1.46478 12.745C1.22432 12.5638 1.04936 12.3093 0.966345 12.0199C0.883331 11.7305 0.896772 11.4219 1.00464 11.1408C1.1125 10.8597 1.30893 10.6213 1.56424 10.4617L16.9667 0.833389C17.1952 0.690398 17.4605 0.617144 17.73 0.622598C17.9994 0.628053 18.2615 0.711978 18.484 0.864097C18.7065 1.01622 18.8799 1.22993 18.9828 1.47905C19.0857 1.72818 19.1137 2.00191 19.0634 2.26672L16.0634 18.2442C16.0136 18.5086 15.888 18.7527 15.7019 18.9469C15.5159 19.1411 15.2773 19.277 15.0153 19.3381C14.7534 19.3991 14.4793 19.3826 14.2265 19.2906C13.9738 19.1987 13.7532 19.0352 13.5917 18.8201L9.25007 13.0242H2.29924Z" stroke="#2E3134" stroke-width="1.5" stroke-linecap="round" stroke-linejoin="round"/>
<path d="M9.24984 13.0242H7.1665V17.3333C7.16649 17.5854 7.23523 17.8327 7.36533 18.0486C7.49543 18.2646 7.68196 18.4409 7.90483 18.5587C8.12771 18.6765 8.37849 18.7312 8.63017 18.7171C8.88186 18.7029 9.12491 18.6204 9.33317 18.4783L11.9815 16.6733L9.24984 13.0242Z" stroke="#2E3134" stroke-width="1.5" stroke-linecap="round" stroke-linejoin="round"/>
<path d="M9.24902 13.0242L18.4824 0.865845" stroke="#2E3134" stroke-width="1.5" stroke-linecap="round" stroke-linejoin="round"/>
</g>
<defs>
<clipPath id="clip0_5_5306">
<rect width="20" height="20" fill="white"/>
</clipPath>
</defs>
</svg>
