<svg width="988" height="988" viewBox="0 0 988 988" fill="none" xmlns="http://www.w3.org/2000/svg">
<g opacity="0.03" clip-path="url(#clip0_1_23067)">
<mask id="mask0_1_23067" style="mask-type:luminance" maskUnits="userSpaceOnUse" x="405" y="680" width="178" height="309">
<path d="M415.005 744.192C396.18 780.607 410.406 808.121 420.592 832.541C480.676 936.152 493.957 988 493.957 988C493.957 988 507.28 936.152 567.365 832.541C577.551 808.121 591.777 780.607 572.952 744.192C559.199 738.087 532.337 727.382 493.957 680.306C455.62 727.425 428.715 738.087 414.962 744.192" fill="white"/>
</mask>
<g mask="url(#mask0_1_23067)">
<path d="M591.82 680.306H396.18V988H591.82V680.306Z" fill="#2E3134"/>
</g>
<mask id="mask1_1_23067" style="mask-type:luminance" maskUnits="userSpaceOnUse" x="0" y="563" width="481" height="174">
<path d="M0 610.659C0 610.659 322.213 844.965 480.891 673.599C433.228 587.959 340.909 563.11 249.794 563.11C123.736 563.11 0 610.659 0 610.659Z" fill="white"/>
</mask>
<g mask="url(#mask1_1_23067)">
<path d="M480.891 563.11H0V844.965H480.891V563.11Z" fill="#2E3134"/>
</g>
<mask id="mask2_1_23067" style="mask-type:luminance" maskUnits="userSpaceOnUse" x="507" y="563" width="481" height="174">
<path d="M507.108 673.599C665.787 844.965 988 610.659 988 610.659C988 610.659 864.263 563.11 738.206 563.11C647.091 563.11 554.772 587.959 507.108 673.599Z" fill="white"/>
</mask>
<g mask="url(#mask2_1_23067)">
<path d="M988 563.11H507.108V844.965H988V563.11Z" fill="#2E3134"/>
</g>
<mask id="mask3_1_23067" style="mask-type:luminance" maskUnits="userSpaceOnUse" x="379" y="0" width="230" height="653">
<path d="M394.718 354.383C386.424 377.814 374.003 418.527 382.298 463.368C400.65 564.7 494 652.92 494 652.92C494 652.92 587.35 564.7 605.702 463.368C613.997 418.57 601.576 377.814 593.281 354.383C584.986 330.953 495.375 91.659 494 0C492.625 91.659 403.013 330.996 394.718 354.383Z" fill="white"/>
</mask>
<g mask="url(#mask3_1_23067)">
<path d="M613.997 0H374.002V652.92H613.997V0Z" fill="#2E3134"/>
</g>
<mask id="mask4_1_23067" style="mask-type:luminance" maskUnits="userSpaceOnUse" x="560" y="52" width="182" height="494">
<path d="M560.961 196.216C570.761 251.203 591.004 287.273 607.851 338.09C649.971 465.26 601.534 545.182 601.534 545.182C859.837 372.053 681.345 52.9663 681.345 52.9663C601.534 88.9506 560.961 196.216 560.961 196.216Z" fill="white"/>
</mask>
<g mask="url(#mask4_1_23067)">
<path d="M859.837 52.9663H560.961V545.182H859.837V52.9663Z" fill="#2E3134"/>
</g>
<mask id="mask5_1_23067" style="mask-type:luminance" maskUnits="userSpaceOnUse" x="246" y="52" width="182" height="494">
<path d="M386.467 545.182C386.467 545.182 338.029 465.303 380.149 338.09C396.996 287.23 417.24 251.203 427.039 196.216C427.039 196.216 386.467 88.9506 306.655 52.9663C306.655 52.9663 128.163 372.053 386.467 545.182Z" fill="white"/>
</mask>
<g mask="url(#mask5_1_23067)">
<path d="M427.039 52.9663H128.163V545.182H427.039V52.9663Z" fill="#2E3134"/>
</g>
<mask id="mask6_1_23067" style="mask-type:luminance" maskUnits="userSpaceOnUse" x="27" y="129" width="373" height="440">
<path d="M399.532 568.913C399.532 568.913 214.938 484.864 192.331 240.024C192.331 240.024 158.592 180.652 27.4634 129.277C27.4634 129.277 9.54121 507.005 399.532 568.913Z" fill="white"/>
</mask>
<g mask="url(#mask6_1_23067)">
<path d="M399.532 129.32H9.54102V568.956H399.532V129.32Z" fill="#2E3134"/>
</g>
<mask id="mask7_1_23067" style="mask-type:luminance" maskUnits="userSpaceOnUse" x="588" y="129" width="373" height="440">
<path d="M795.626 240.067C773.019 484.907 588.425 568.956 588.425 568.956C978.416 507.048 960.493 129.32 960.493 129.32C829.365 180.738 795.626 240.067 795.626 240.067Z" fill="white"/>
</mask>
<g mask="url(#mask7_1_23067)">
<path d="M978.416 129.32H588.425V568.956H978.416V129.32Z" fill="#2E3134"/>
</g>
</g>
<defs>
<clipPath id="clip0_1_23067">
<rect width="988" height="988" fill="white"/>
</clipPath>
</defs>
</svg>
