<svg width="15" height="14" viewBox="0 0 15 14" fill="none" xmlns="http://www.w3.org/2000/svg">
<path d="M0.902458 6.43319C0.902458 6.43319 7.41276 3.69116 9.67064 2.72562C10.5362 2.33944 13.4715 1.10355 13.4715 1.10355C13.4715 1.10355 14.8262 0.562895 14.7133 1.87597C14.6757 2.41668 14.3746 4.30905 14.0736 6.35595C13.622 9.2525 13.1328 12.4194 13.1328 12.4194C13.1328 12.4194 13.0575 13.3077 12.4178 13.4621C11.7781 13.6166 10.7243 12.9215 10.5362 12.767C10.3856 12.6511 7.7138 10.9132 6.73538 10.0635C6.47195 9.83181 6.17091 9.36839 6.77298 8.82768C8.12775 7.5532 9.7459 5.96977 10.7243 4.96564C11.1759 4.50217 11.6275 3.4208 9.7459 4.73388C7.07407 6.6263 4.43985 8.40285 4.43985 8.40285C4.43985 8.40285 3.83772 8.78903 2.70878 8.44144C1.57979 8.0939 0.262677 7.63043 0.262677 7.63043C0.262677 7.63043 -0.640432 7.05113 0.902458 6.43319Z" fill="white"/>
</svg>
